<svg id="Layer_1" enable-background="new 0 0 512 512" height="512" viewBox="0 0 512 512" width="512" xmlns="http://www.w3.org/2000/svg"><g><g clip-rule="evenodd" fill-rule="evenodd"><path d="m89.163 502.977c10.261 5.925 28.401-6.292 40.505-27.296 2.068-3.571 3.826-7.171 5.271-10.714-14.144-3.77-27.749-4.818-45.267-5.272-9.409 19.189-9.863 37.868-.509 43.282z" fill="#c6b4da"/><path d="m382.332 475.681c12.132 21.004 30.244 33.221 40.505 27.296 9.353-5.414 8.9-24.093-.511-43.282-13.69 1.304-30.499 2.126-45.267 5.272 1.447 3.543 3.204 7.142 5.273 10.714z" fill="#c6b4da"/><path d="m462.01 304.791-12.217 111.281c-2.948 26.729-21.996 48.895-48.895 48.895h-289.768c-26.898 0-45.975-22.166-48.923-48.895l-12.217-111.281 203.09-8.73z" fill="#e2d8ec"/><path d="m462.01 304.791-12.217 111.281c-2.948 26.729-21.996 48.895-48.895 48.895h-29.138c26.899 0 45.976-22.166 48.924-48.895l12.216-111.281z" fill="#d5c6e4"/><path d="m400.331 218.169c22.506 0 40.788 18.255 40.788 40.789 0 2.636-.255 5.243-.737 7.737l-165.958 8.73-193.708-8.73c-.595-22.053 17.092-40.277 39.173-40.277 5.073.057 8.446.651 13.181 2.466 5.726 2.211 5.357.057 6.888-5.159 3.741-12.727 15.277-23.299 27.777-27.295 4.365-1.39 8.561-1.984 13.152-2.013 20.181.17 38.151 13.945 42.148 33.9 1.247 6.122 2.353 4.705 7.284 2.153 6.803-3.486 15.249-5.017 22.846-5.073 10.034.057 19.615 2.522 28.118 7.965 5.131 3.259 4.961 1.786 5.584-3.714 2.069-18.281 16.667-33.899 34.27-38.719 4.195-1.162 8.219-1.644 12.585-1.672 18.849.142 36.621 11.225 43.565 28.969 2.494 6.377 3.713 4.762 9.325 2.438 4.422-1.843 8.957-2.466 13.719-2.495z" fill="#cbe2ff"/><path d="m400.331 218.169c22.506 0 40.788 18.255 40.788 40.789 0 2.636-.255 5.243-.737 7.737h-24.263c.482-2.494.737-5.102.737-7.737 0-18.283-12.018-33.731-28.6-38.918 3.912-1.36 7.908-1.842 12.075-1.871z" fill="#9dc6fb"/><path d="m49.99 304.791h412.02c10.486 0 19.076-8.56 19.076-19.048 0-10.459-8.59-19.048-19.076-19.048h-91.639l-55.188 7.767-59.183-7.767h-206.01c-10.487 0-19.047 8.589-19.047 19.048.001 10.487 8.56 19.048 19.047 19.048z" fill="#f9f6f6"/><path d="m432.9 304.791h29.11c10.486 0 19.076-8.56 19.076-19.048 0-10.459-8.59-19.048-19.076-19.048h-29.11c10.487 0 19.048 8.589 19.048 19.048-.001 10.487-8.561 19.048-19.048 19.048z" fill="#e2d8ec"/><path d="m256 49.178c26.077 0 47.563 19.587 50.567 44.814.51 4.337-1.418 5.924-5.471 6.123h-90.193c-4.337 0-5.98-1.815-5.471-6.095 3.006-25.255 24.519-44.842 50.568-44.842z" fill="#e2d8ec"/><path d="m256 49.178c26.077 0 47.563 19.587 50.567 44.814.51 4.337-1.418 5.924-5.471 6.123h-29.11c4.053-.199 5.98-1.786 5.47-6.123-2.437-20.323-16.864-36.99-36.025-42.716 4.62-1.361 9.523-2.098 14.569-2.098z" fill="#d5c6e4"/><path d="m370.371 266.695v123.923c0 11.366-9.298 20.663-20.664 20.663h-73.044c-11.366 0-20.663-9.297-20.663-20.663v-123.923z" fill="#b3e59f"/><path d="m370.371 266.695v123.923c0 11.366-9.298 20.663-20.664 20.663h-29.109c11.366 0 20.663-9.297 20.663-20.663v-123.923z" fill="#95d6a4"/></g><path d="m468.813 311.424-11.565 105.442c-1.701 15.476-8.276 29.648-18.396 39.796-2.182 2.182-4.534 4.166-7.029 5.952 3.401 8.56 5.188 16.865 5.272 23.98.113 10.119-3.174 18.254-9.977 22.534-8.531 5.895-20.324 1.7-28.033-3.486-11.706-7.908-20.834-20.55-26.87-33.163h-232.429c-6.065 12.727-15.079 25.197-26.87 33.163-7.965 5.357-18.509 9.014-27.494 3.826-7.172-4.167-10.63-12.5-10.517-22.874.085-7.114 1.871-15.42 5.301-23.98-2.494-1.786-4.847-3.77-7.029-5.952-10.148-10.148-16.695-24.32-18.396-39.796l-2.438-22.024c-.426-4.11 2.551-7.795 6.66-8.22 4.11-.453 7.795 2.522 8.221 6.633l2.438 22.023c1.304 12.047 6.349 23.016 14.115 30.754 7.37 7.398 16.865 11.451 27.353 11.451h23.81 265.959c10.459 0 19.955-4.053 27.353-11.451 7.738-7.738 12.783-18.707 14.115-30.754l11.31-102.977h-75.794v78.316c0 7.767-3.175 14.796-8.276 19.898-5.103 5.103-12.131 8.248-19.898 8.248h-73.044c-7.767 0-14.796-3.145-19.898-8.248s-8.249-12.132-8.249-19.898v-22.533c0-4.139 3.345-7.483 7.483-7.483 4.139 0 7.511 3.345 7.511 7.483v22.533c0 3.6 1.475 6.888 3.855 9.298 2.381 2.38 5.669 3.855 9.297 3.855h73.044c3.629 0 6.917-1.475 9.297-3.855 2.382-2.41 3.855-5.698 3.855-9.298v-85.827-30.584h-99.349v30.584 29.337c0 4.138-3.372 7.483-7.511 7.483s-7.483-3.345-7.483-7.483v-21.826h-190.193l5.187 47.194c.453 4.109-2.522 7.795-6.633 8.22-4.109.454-7.795-2.522-8.248-6.633l-5.442-49.659c-4.591-1.22-8.701-3.657-11.961-6.916-4.819-4.819-7.795-11.452-7.795-18.765 0-7.314 2.976-13.945 7.795-18.735 4.818-4.819 11.451-7.795 18.764-7.795h23.668c1.417-10.347 6.208-19.587 13.237-26.616 8.446-8.446 20.096-13.662 32.993-13.662 4.365 0 8.872.624 13.067 1.871 3.004-8.532 8.248-15.986 14.994-21.741 8.9-7.567 20.379-12.159 32.936-12.159 13.18 0 25.198 5.045 34.24 13.265 6.575 6.01 11.564 13.719 14.285 22.449 2.126-.907 4.309-1.672 6.548-2.295 5.471-1.588 11.253-2.439 17.205-2.439 6.889 0 13.549 1.162 19.814 3.26 2.466.822 4.875 1.815 7.228 2.948.85-3.685 2.069-7.2 3.628-10.545 3.346-7.171 8.249-13.52 14.286-18.679 3.146-2.664 7.852-2.296 10.517.851 2.664 3.145 2.296 7.852-.851 10.516-4.337 3.685-7.881 8.333-10.375 13.662-2.408 5.216-3.684 10.855-3.74 16.639 0 1.559-.482 3.117-1.503 4.479-2.494 3.288-7.172 3.911-10.46 1.417-4.024-3.033-8.56-5.471-13.492-7.114-4.677-1.56-9.75-2.439-15.051-2.439-4.563 0-8.956.652-13.095 1.843-4.309 1.247-8.362 3.061-12.019 5.386-.991.623-2.126.992-3.316 1.105-4.109.368-7.738-2.665-8.107-6.774-.851-9.155-5.158-17.318-11.593-23.186-6.378-5.812-14.852-9.355-24.149-9.355-8.929 0-17.035 3.232-23.271 8.532-6.491 5.526-10.827 13.18-12.188 21.627-.113.765-.368 1.53-.765 2.268-1.899 3.656-6.406 5.073-10.063 3.174-4.592-2.409-9.552-3.571-14.711-3.571-8.73 0-16.667 3.543-22.393 9.27-4.309 4.308-7.369 9.835-8.646 16.015h344.758v-.255c0-9.185-3.714-17.518-9.752-23.555-6.008-6.01-14.342-9.751-23.525-9.751-3.147 0-6.123.426-8.872 1.162-2.777.766-5.413 1.898-7.879 3.316-.624.425-1.333.766-2.098.964-3.997 1.134-8.106-1.19-9.24-5.159-2.353-8.446-7.398-15.73-14.172-20.946-6.605-5.074-14.826-8.135-23.754-8.248-4.139-.057-7.426-3.458-7.369-7.568.027-4.139 3.429-7.427 7.539-7.398 12.33.198 23.641 4.394 32.738 11.395 6.973 5.357 12.642 12.387 16.412 20.493 1.275-.453 2.551-.878 3.883-1.246 1.758-.482 3.515-.879 5.3-1.162v-162.078c0-9.382-3.853-17.941-10.033-24.121-6.208-6.207-14.739-10.062-24.149-10.062h-60.971c-9.381 0-17.913 3.854-24.121 10.062-4.62 4.62-7.937 10.573-9.325 17.177 12.84 1.815 24.349 7.795 33.107 16.554 10.573 10.572 17.092 25.17 17.092 41.327 0 4.138-3.344 7.482-7.482 7.482h-101.871c-4.139 0-7.483-3.345-7.483-7.482 0-16.157 6.52-30.755 17.12-41.327 9.014-9.014 20.976-15.107 34.326-16.695 1.559-10.714 6.575-20.322 13.917-27.664 8.9-8.902 21.201-14.429 34.721-14.429h60.971c13.549 0 25.85 5.527 34.75 14.428 8.9 8.929 14.427 21.23 14.427 34.75v162.076c10.347 1.614 19.587 6.49 26.646 13.548 9.183 9.184 14.2 21.429 14.143 34.411h13.407c7.313 0 13.974 2.976 18.764 7.795 4.818 4.79 7.795 11.422 7.795 18.735s-2.977 13.945-7.795 18.765c-3.26 3.259-7.371 5.696-11.961 6.916zm-236.283-142.829c0 4.139-3.373 7.511-7.511 7.511-4.139 0-7.483-3.372-7.483-7.511v-37.5c0-4.167 3.345-7.512 7.483-7.512s7.511 3.345 7.511 7.512zm61.962 0c0 4.139-3.373 7.511-7.512 7.511-4.138 0-7.483-3.372-7.483-7.511v-37.5c0-4.167 3.346-7.512 7.483-7.512 4.139 0 7.512 3.345 7.512 7.512zm-30.981 13.406c0 4.167-3.372 7.512-7.511 7.512s-7.483-3.345-7.483-7.512v-50.906c0-4.167 3.345-7.512 7.483-7.512 4.139 0 7.511 3.345 7.511 7.512zm114.371 115.307h84.128c3.175 0 6.065-1.304 8.162-3.401 2.098-2.098 3.402-4.988 3.402-8.163 0-3.146-1.305-6.037-3.402-8.135s-4.987-3.401-8.162-3.401h-84.128zm-129.365-23.101h-167.801-30.726c-3.174 0-6.065 1.304-8.163 3.401-2.098 2.098-3.401 4.988-3.401 8.135 0 3.175 1.304 6.065 3.401 8.163 2.098 2.098 4.989 3.401 8.163 3.401h198.526v-23.1zm38.209-204.818c-7.88-7.852-18.735-12.728-30.726-12.728-11.989 0-22.846 4.876-30.697 12.728-6.18 6.179-10.517 14.229-12.075 23.214h85.572c-1.587-8.986-5.895-17.036-12.074-23.214zm131.747 400.141c-4.904 1.729-10.148 2.721-15.703 2.92-4.508.142-9.128.028-13.662.028 5.441 9.239 12.046 16.468 18.366 20.748 4.933 3.316 9.185 4.677 11.622 3.288 2.834-1.588 3.089-7.002 3.061-9.808-.057-4.988-1.303-10.884-3.684-17.176zm-295.579 2.948c-4.508 0-9.127.113-13.634-.028-5.585-.199-10.828-1.19-15.732-2.892-2.381 6.264-3.629 12.159-3.685 17.148-.113 11.819 5.272 12.868 14.683 6.52 6.377-4.308 12.982-11.536 18.368-20.748z"/></g></svg>