<svg id="Filled_cutting_stroke_Ex" height="512" viewBox="0 0 512 512" width="512" xmlns="http://www.w3.org/2000/svg" data-name="Filled cutting stroke Ex"><g><path d="m176 272a31.9224 31.9224 0 0 1 -24-10.834 32.0068 32.0068 0 0 1 -41.6963 5.499 32.0043 32.0043 0 1 1 -55.2224-30.5872 32.0007 32.0007 0 0 1 45.4987-44.5827 32.01 32.01 0 0 1 59.1116 20.9672 32.0019 32.0019 0 1 1 16.3084 59.5377z" fill="#bcebf5"/><g><path d="m369.5848 432h-273.5414a20 20 0 0 1 -19.5234-15.6614l-28.52-128.3386h296l96-24-51.4415 154.3246a20 20 0 0 1 -18.9737 13.6754z" fill="#fff7e3"/><path d="m344 296h-200v-16h199.0156l79.044-19.7612 3.8808 15.5224-80 20a7.9975 7.9975 0 0 1 -1.9404.2388z"/><path d="m473.3529 252.0686-116.2193 32.2832a100.0025 100.0025 0 0 1 -26.7644 3.6482h-286.3692a20 20 0 0 1 -20-20v-12h306.3692a100.0025 100.0025 0 0 0 26.7644-3.6482l130.8664-36.3518v16.7983a20 20 0 0 1 -14.6471 19.2703z" fill="#fed672"/><path d="m264 256h-88l22.5452-33.8178a31.8485 31.8485 0 0 1 26.4996-14.1822 31.8486 31.8486 0 0 1 30.2142 21.7772z" fill="#ffd4cf"/><g><path d="m34 240h100a10 10 0 0 1 10 10v134a0 0 0 0 1 0 0h-120a0 0 0 0 1 0 0v-134a10 10 0 0 1 10-10z" fill="#79d8eb"/><path d="m24 320h120v32h-120z" fill="#fed672"/></g><path d="m324 328 9.899 18.101 18.101 9.899-18.101 9.899-9.899 18.101-9.899-18.101-18.101-9.899 18.101-9.899z" fill="#fed672"/><path d="m324 392a8 8 0 0 1 -7.0186-4.1611l-8.7753-16.045-16.045-8.7749a8 8 0 0 1 0-14.038l16.045-8.7749 8.7753-16.045a8 8 0 0 1 14.0372 0l8.7753 16.045 16.045 8.7749a8 8 0 0 1 0 14.038l-16.045 8.7749-8.7753 16.045a8 8 0 0 1 -7.0186 4.1611zm-11.3281-36 5.2676 2.88a8 8 0 0 1 3.18 3.18l2.8805 5.2676 2.8809-5.2671a8 8 0 0 1 3.18-3.18l5.2676-2.88-5.2676-2.88a8 8 0 0 1 -3.18-3.18l-2.8809-5.2681-2.8809 5.2671a8 8 0 0 1 -3.18 3.18z"/><g><path d="m376 56h16v16h-16z"/><path d="m376 88h16v16h-16z"/><path d="m360 72h16v16h-16z"/><path d="m392 72h16v16h-16z"/></g><g><path d="m216 16h16v16h-16z"/><path d="m216 48h16v16h-16z"/><path d="m200 32h16v16h-16z"/><path d="m232 32h16v16h-16z"/></g><path d="m160 432h-64v56h8.914a20 20 0 0 0 19.23-14.5056l2.7132-9.4944h3.1428a30 30 0 0 0 30-30z" fill="#fed672"/><path d="m312 432h64v56h-8.914a20 20 0 0 1 -19.2305-14.5056l-2.7127-9.4944h-3.1428a30 30 0 0 1 -30-30z" fill="#fed672"/><g><g><path d="m208 160h16v16h-16z"/><path d="m256 144h16v16h-16z"/></g><path d="m224 104h16v16h-16z"/></g><g><path d="m456 224-40-88-21.979 5.5579-40.291 2.4421 6.27 20.5405-17.7877 15.2638a20 20 0 0 0 -2.9757 27.1779l12.7634 17.0178-8 32z" fill="#ffd4cf"/><path d="m416 136 17.4733 40.7711a40 40 0 0 1 .3733 30.6124l-9.8466 24.6165v112h34a30 30 0 0 0 30-30v-146.503a40 40 0 0 0 -52.6491-37.947z" fill="#fa5d3f"/><path d="m448 256h16v56h-16z"/><path d="m384 144 3.74 26.1811a20 20 0 0 0 30.0889 14.3215l14.1711-8.5026-16-40z" fill="#fed672"/></g><path d="m496 200v-32.5029a48 48 0 0 0 -63.18-45.5371l-19.0576 6.3526-21.2993 5.3249-39.2183 2.3767a8 8 0 0 0 -7.167 10.3213l4.7432 15.5386-13.819 11.8593a28.0686 28.0686 0 0 0 -4.1661 38.0483l10.48 13.9722-5.4859 21.9423q-3.7193.3025-7.461.3038h-60.6026l-6.9178-20.7524a39.8615 39.8615 0 0 0 -62.3037-18.8368 40.0423 40.0423 0 0 0 -33.1689-7.4728 40.0645 40.0645 0 0 0 -39.376-32.938 39.6624 39.6624 0 0 0 -29.2373 12.6743 39.9937 39.9937 0 0 0 -55.4185 51.3257h-9.3442a18.0206 18.0206 0 0 0 -18 18v22h16v-22a2.0023 2.0023 0 0 1 2-2h100a2.0023 2.0023 0 0 1 2 2v62h-104v-24h-16v96a8 8 0 0 0 8 8h38.9155l5.7945 26.0737a27.8114 27.8114 0 0 0 19.29 20.7711v49.1552a8 8 0 0 0 8 8h8.9141a28.1184 28.1184 0 0 0 26.9228-20.3076l1.0869-3.8037a38.0746 38.0746 0 0 0 34.6028-31.8887h16.4734v-16h-87.957a11.9281 11.9281 0 0 1 -11.7139-9.397l-5.0229-22.603h64.6938a8 8 0 0 0 8-8v-88h178.3691a107.9912 107.9912 0 0 0 28.9063-3.94l56.7246-15.7571v34.3978l-35.03 105.0937a11.9863 11.9863 0 0 1 -11.385 8.2056h-169.585v16h104.4734a38.0746 38.0746 0 0 0 34.6028 31.8887l1.0869 3.8037a28.1184 28.1184 0 0 0 26.9228 20.3076h8.9141a8 8 0 0 0 8-8v-51.9866a27.9645 27.9645 0 0 0 12.1484-15.1589l23.4016-70.2056a7.9616 7.9616 0 0 0 4.45 1.3511h34a38.0433 38.0433 0 0 0 38-38v-98h-16v98a22.0248 22.0248 0 0 1 -22 22h-26v-102.4595l9.2744-23.1865a47.6874 47.6874 0 0 0 -.4473-36.7344l-14.0488-32.78 11.1026-3.7006a32 32 0 0 1 42.1191 30.3581v32.5029zm-344.8311 240a22.04 22.04 0 0 1 -21.1689 16h-3.1426a8 8 0 0 0 -7.6924 5.8022l-2.7129 9.4947a12.0509 12.0509 0 0 1 -11.538 8.7031h-.9141v-40zm-15.1689-64h-104v-16h104zm0-32h-104v-16h104zm232 136h-.9141a12.0509 12.0509 0 0 1 -11.538-8.7031l-2.7129-9.4947a8 8 0 0 0 -7.6924-5.8022h-3.1426a22.04 22.04 0 0 1 -21.1689-16h47.1689zm26.99-330.5013a7.9446 7.9446 0 0 0 .9919-.1847l15.3552-3.8832 11.4676 26.7566-9.0923 5.4552a11.9993 11.9993 0 0 1 -18.0524-8.5926l-2.72-19.0386zm-189.7888 77.1213a23.8482 23.8482 0 0 1 42.4677 5.687l5.2311 15.693h-61.952zm-53.312 21.38a18.026 18.026 0 0 0 -17.8892-16h-72.0359a8.0253 8.0253 0 0 0 -.6565-.9453 23.7272 23.7272 0 0 1 -5.3076-15.0547 24.0005 24.0005 0 0 1 39.4326-18.3809 7.9991 7.9991 0 0 0 11.9971-1.9917 24.0034 24.0034 0 0 1 44.5703 12.3726 24.3914 24.3914 0 0 1 -.2324 3.3589 8 8 0 0 0 12.0068 7.9829 24.0224 24.0224 0 0 1 26.259 1.1857l-18.3146 27.4725zm264.1108 11.6971-61.0078 16.9465a91.9984 91.9984 0 0 1 -24.6231 3.3564h-178.3691v-16h178.3691q5.3907 0 10.75-.537a8.0014 8.0014 0 0 0 5.0791.2294l9.3038-2.6582q1.8943-.4535 3.7734-.9746l56.7246-15.7567zm12.3281-72.1644a31.8075 31.8075 0 0 1 -1.9092 16.8794l-8.9052 22.2634-62.3937 17.8269 4.6406-18.562a7.9971 7.9971 0 0 0 -1.36-6.74l-12.7637-17.0181a12.0294 12.0294 0 0 1 1.7852-16.3066l17.7879-15.2639a8 8 0 0 0 2.4414-8.4072l-3.3067-10.833 12.5186-.7588 2.957 20.7a27.9874 27.9874 0 0 0 42.125 20.05z"/></g><path d="m80 56 14.142 25.858 25.858 14.142-25.858 14.142-14.142 25.858-14.142-25.858-25.858-14.142 25.858-14.142z" fill="#fed672"/><path d="m80 144a8.0008 8.0008 0 0 1 -7.0186-4.1611l-13.0185-23.8023-23.8018-13.0176a8 8 0 0 1 0-14.038l23.8018-13.0176 13.0185-23.8023a8 8 0 0 1 14.0372 0l13.0185 23.8023 23.8018 13.0176a8 8 0 0 1 0 14.038l-23.8018 13.0176-13.0185 23.8023a8.0008 8.0008 0 0 1 -7.0186 4.1611zm-23.3281-48 13.0244 7.123a8.0059 8.0059 0 0 1 3.18 3.18l7.1237 13.0251 7.124-13.0249a8.0059 8.0059 0 0 1 3.18-3.18l13.0241-7.1232-13.0244-7.123a8.0059 8.0059 0 0 1 -3.18-3.18l-7.1237-13.0251-7.124 13.0249a8.0059 8.0059 0 0 1 -3.18 3.18z"/></g></svg>