<svg id="Capa_1" enable-background="new 0 0 512 512" height="512" viewBox="0 0 512 512" width="512" xmlns="http://www.w3.org/2000/svg"><g><path d="m7.5 314.37h114.623v92.491h-114.623z" fill="#be694f"/><path d="m389.877 314.37h114.623v92.491h-114.623z" fill="#be694f"/><path d="m122.123 406.861v-92.491h-17v8.577c0 7.228-4.143 13.764-10.604 17.006-14.424 7.237-24.347 22.171-24.347 39.377v27.531z" fill="#aa593d"/><path d="m482.141 314.37h22.36v92.491h-22.36z" fill="#aa593d"/><path d="m86.336 314.37h-43.048v-56.992c0-4.383 3.553-7.936 7.936-7.936h27.176c4.383 0 7.936 3.553 7.936 7.936z" fill="#cbe2ff"/><path d="m78.4 249.442h-17.5c4.383 0 7.936 3.553 7.936 7.936v56.992h17.5v-56.992c0-4.383-3.553-7.936-7.936-7.936z" fill="#9dc6fb"/><path d="m468.713 314.37h-43.048v-56.992c0-4.383 3.553-7.936 7.936-7.936h27.177c4.383 0 7.936 3.553 7.936 7.936v56.992z" fill="#cbe2ff"/><path d="m460.777 249.442h-21.524c4.383 0 7.936 3.553 7.936 7.936v56.992h21.524v-56.992c0-4.383-3.553-7.936-7.936-7.936z" fill="#9dc6fb"/><path d="m424.829 433.306h-337.657v-53.975c0-14.925 12.099-27.025 27.025-27.025h283.608c14.925 0 27.025 12.099 27.025 27.025v53.975z" fill="#f9f6f9"/><path d="m397.805 352.306h-27.978c14.925 0 27.025 12.099 27.025 27.025v53.975h27.978v-53.975c-.001-14.926-12.1-27.025-27.025-27.025z" fill="#dddaec"/><path d="m64.249 433.306h383.503v40.245h-383.503z" fill="#934d36"/><path d="m419.773 433.306h27.978v40.245h-27.978z" fill="#7a402b"/><path d="m389.877 352.306h-267.754v-96.558c0-21.916 17.766-39.682 39.682-39.682h188.39c21.916 0 39.682 17.766 39.682 39.682z" fill="#eab14d"/><path d="m350.195 216.066h-25.471c21.916 0 39.682 17.766 39.682 39.682v96.558h25.471v-96.558c0-21.915-17.766-39.682-39.682-39.682z" fill="#e7a52e"/><g fill="#ffe07d"><path d="m234.53 352.306h-72.22v-27.485c0-8.184 6.635-14.819 14.819-14.819h42.581c8.184 0 14.819 6.635 14.819 14.819v27.485z"/><path d="m349.691 352.306h-72.22v-27.485c0-8.184 6.635-14.819 14.819-14.819h42.581c8.184 0 14.819 6.635 14.819 14.819v27.485z"/></g><g><path d="m150.378 133.695c7.509-3.889 14.995-27.596 22.424-31.067v-58.445c0-3.166-2.567-5.733-5.733-5.733h-70c-3.166 0-5.733 2.567-5.733 5.733v84.066c3.664.073 7.714 19.962 12.096 19.565 13.144-1.193 29.275-4.968 46.946-14.119z" fill="#f9f6f9"/></g><path d="m167.069 38.449h-24.164c3.167 0 5.733 2.567 5.733 5.733v90.386c.58-.29 1.157-.571 1.74-.873 7.509-3.889 14.995-27.596 22.424-31.067v-58.445c0-3.167-2.567-5.734-5.733-5.734z" fill="#dddaec"/><path d="m291 38.449h-69.999c-3.166 0-5.733 2.567-5.733 5.733v39.843c6.551-1.969 12.981 16.398 19.262 15.154 13.178-2.61 25.697-3.506 37.279-2.19 7.375.838 15.818-18.737 24.924-18.23v-34.576c0-3.167-2.567-5.734-5.733-5.734z" fill="#f9f6f9"/><path d="m291 38.449h-24.59c3.166 0 5.733 2.567 5.733 5.733v52.816c7.295.229 15.621-18.739 24.59-18.24v-34.575c0-3.167-2.567-5.734-5.733-5.734z" fill="#dddaec"/><g><path d="m414.931 38.449h-69.999c-3.167 0-5.733 2.567-5.733 5.733v39.733c4.837.975 9.677 22.147 14.478 23.57 18.044 5.348 35.528 14.236 50.167 29.472 5.529 5.755 11.182-9.122 16.821-4.559v-88.215c0-3.167-2.567-5.734-5.734-5.734z" fill="#f9f6f9"/></g><path d="m414.931 38.449h-22.631c3.167 0 5.733 2.567 5.733 5.733v87.189c1.98 1.762 3.92 3.619 5.81 5.586 5.529 5.755 11.182-9.122 16.821-4.559v-88.215c.001-3.167-2.566-5.734-5.733-5.734z" fill="#dddaec"/><path d="m420.665 156.991v-24.592c-5.638-4.562-11.292-9.686-16.821-15.441-18.534-19.29-41.627-28.404-64.645-33.042v73.075c0 3.166 2.567 5.733 5.733 5.733h69.999c3.167 0 5.734-2.567 5.734-5.733z" fill="#dd636e"/><path d="m398.034 111.373v45.618c0 3.166-2.567 5.733-5.733 5.733h22.631c3.166 0 5.733-2.567 5.733-5.733v-24.592c-12.741-10.31-15.599-14.77-22.631-21.026z" fill="#da4a54"/><path d="m271.809 76.989c-17.103-1.944-36.246.937-56.541 7.036v72.965c0 3.166 2.567 5.733 5.733 5.733h69.999c3.166 0 5.733-2.567 5.733-5.733v-78.231c-9.106-.507-17.55-.932-24.924-1.77z" fill="#dd636e"/><path d="m272.143 77.024v79.966c0 3.166-2.567 5.733-5.733 5.733h24.59c3.166 0 5.733-2.567 5.733-5.733v-78.231c-8.971-.499-17.294-.921-24.59-1.735z" fill="#da4a54"/><path d="m97.069 162.724h69.999c3.167 0 5.733-2.567 5.733-5.733v-54.363c-7.429 3.471-14.915 7.178-22.424 11.067-23.561 12.201-44.384 14.846-59.042 14.554v28.742c.001 3.166 2.568 5.733 5.734 5.733z" fill="#dd636e"/><path d="m150.378 113.695c-.584.303-1.159.573-1.74.864v42.432c0 3.166-2.567 5.733-5.733 5.733h24.164c3.167 0 5.733-2.567 5.733-5.733v-54.363c-7.429 3.471-14.915 7.178-22.424 11.067z" fill="#da4a54"/><g><path d="m504.5 306.87h-28.287v-49.492c0-8.511-6.925-15.436-15.436-15.436h-27.177c-8.511 0-15.436 6.924-15.436 15.436v49.492h-20.788v-51.122c0-26.016-21.166-47.182-47.182-47.182h-36.393c-4.143 0-7.5 3.358-7.5 7.5s3.357 7.5 7.5 7.5h36.393c17.745 0 32.182 14.437 32.182 32.182v89.058h-25.186v-19.984c0-12.307-10.013-22.319-22.319-22.319h-42.581c-12.307 0-22.319 10.013-22.319 22.319v19.984h-27.941v-19.984c0-12.307-10.013-22.319-22.319-22.319h-42.581c-12.307 0-22.319 10.013-22.319 22.319v19.984h-25.187v-89.058c0-17.745 14.438-32.182 32.183-32.182h122.01c4.143 0 7.5-3.358 7.5-7.5s-3.357-7.5-7.5-7.5h-122.01c-26.017 0-47.183 21.166-47.183 47.182v51.122h-20.788v-49.492c0-8.511-6.925-15.436-15.436-15.436h-27.176c-8.512 0-15.437 6.924-15.437 15.436v49.492h-28.287c-4.143 0-7.5 3.357-7.5 7.5v92.491c0 4.143 3.357 7.5 7.5 7.5h72.172v11.444h-15.423c-4.143 0-7.5 3.357-7.5 7.5v40.245c0 4.143 3.357 7.5 7.5 7.5h278.059c4.143 0 7.5-3.357 7.5-7.5s-3.357-7.5-7.5-7.5h-270.559v-25.245h368.503v25.245h-67.957c-4.143 0-7.5 3.357-7.5 7.5s3.357 7.5 7.5 7.5h75.457c4.143 0 7.5-3.357 7.5-7.5v-40.245c0-4.143-3.357-7.5-7.5-7.5h-15.423v-11.444h72.171c4.143 0 7.5-3.357 7.5-7.5v-92.491c0-4.142-3.357-7.5-7.5-7.5zm-71.335-49.492c0-.24.195-.436.436-.436h27.177c.24 0 .436.195.436.436v49.492h-28.048v-49.492zm-148.194 67.444c0-4.036 3.283-7.319 7.319-7.319h42.581c4.036 0 7.319 3.283 7.319 7.319v19.984h-57.22v-19.984zm-115.161 0c0-4.036 3.283-7.319 7.319-7.319h42.581c4.036 0 7.319 3.283 7.319 7.319v19.984h-57.22v-19.984zm-119.023-67.444c0-.24.196-.436.437-.436h27.176c.24 0 .436.195.436.436v49.492h-28.049zm-35.787 141.984v-77.492h99.623v22.936h-.427c-19.037 0-34.524 15.487-34.524 34.524v20.031h-64.672zm79.672 26.444v-46.476c0-10.766 8.759-19.524 19.524-19.524h283.608c10.766 0 19.524 8.759 19.524 19.524v46.476zm402.328-26.444h-64.671v-20.032c0-19.037-15.487-34.524-34.524-34.524h-.428v-22.936h99.623z"/><path d="m331.699 83.992v72.999c0 7.297 5.936 13.233 13.232 13.233h70c7.297 0 13.233-5.937 13.233-13.233v-112.809c0-7.297-5.937-13.233-13.233-13.233h-70c-7.297 0-13.232 5.937-13.232 13.233v39.712zm15 71.232v-61.88c21.571 5.63 38.562 15.098 51.736 28.81 4.628 4.816 9.579 9.418 14.729 13.751v19.319zm66.466-109.275v69.754c-1.328-1.296-2.634-2.61-3.913-3.941-15.934-16.585-36.448-27.695-62.553-33.872v-31.941z"/><path d="m207.768 83.994v72.997c0 7.297 5.937 13.233 13.233 13.233h69.999c7.297 0 13.233-5.937 13.233-13.233v-112.809c0-7.297-5.937-13.233-13.233-13.233h-69.999c-7.297 0-13.233 5.937-13.233 13.233v39.74c-.001.024 0 .048 0 .072zm15 71.23v-65.54c18.371-5.021 34.57-6.792 48.194-5.242 5.606.637 11.769 1.039 18.271 1.411v69.372h-66.465zm66.465-109.275v24.879c-5.965-.345-11.586-.723-16.578-1.29-14.73-1.674-31.13-.153-49.888 4.627v-28.216z"/><path d="m283.815 261.567h-55.631c-4.143 0-7.5 3.357-7.5 7.5s3.357 7.5 7.5 7.5h55.631c4.143 0 7.5-3.357 7.5-7.5s-3.357-7.5-7.5-7.5z"/><path d="m97.069 170.224h69.999c7.297 0 13.233-5.937 13.233-13.233v-112.809c0-7.297-5.937-13.233-13.233-13.233h-69.999c-7.297 0-13.233 5.937-13.233 13.233v29.199c0 4.142 3.357 7.5 7.5 7.5s7.5-3.358 7.5-7.5v-27.432h66.466v51.935c-5.936 2.837-12.089 5.898-18.373 9.151-18.781 9.725-35.624 12.896-48.093 13.575v-17.241c0-4.142-3.357-7.5-7.5-7.5s-7.5 3.358-7.5 7.5v53.622c0 7.297 5.936 13.233 13.233 13.233zm56.758-49.869c3.883-2.011 7.716-3.948 11.475-5.801v40.671h-66.466v-19.587c14.216-.677 33.56-4.185 54.991-15.283z"/><path d="m72.169 344.806h-14.715c-4.143 0-7.5 3.357-7.5 7.5s3.357 7.5 7.5 7.5h14.715c4.143 0 7.5-3.357 7.5-7.5s-3.357-7.5-7.5-7.5z"/><path d="m454.547 344.806h-14.716c-4.143 0-7.5 3.357-7.5 7.5s3.357 7.5 7.5 7.5h14.716c4.143 0 7.5-3.357 7.5-7.5s-3.358-7.5-7.5-7.5z"/></g></g></svg>