<?xml version="1.0" encoding="iso-8859-1"?>
<!-- Generator: Adobe Illustrator 19.0.0, SVG Export Plug-In . SVG Version: 6.00 Build 0)  -->
<svg version="1.1" id="Layer_1" xmlns="http://www.w3.org/2000/svg" xmlns:xlink="http://www.w3.org/1999/xlink" x="0px" y="0px"
	 viewBox="0 0 512.001 512.001" style="enable-background:new 0 0 512.001 512.001;" xml:space="preserve">
<path style="fill:#064222;" d="M328.357,400.356c-5.415-14.957-19.197-25.895-35.693-27.182
	c-1.665-21.349-19.503-38.157-41.278-38.157c-17.189,0-31.932,10.473-38.199,25.386c-1.064-0.079-2.136-0.133-3.22-0.133
	c-18.995,0-35.111,12.284-40.856,29.34c9.281,3.402,16.648,10.768,20.015,20.068c16.294,3.511,28.508,17.996,28.508,35.34
	c0,1.507-0.103,2.988-0.282,4.447h145.845c0.22-1.8,0.348-3.63,0.348-5.489C363.544,422.569,348.469,404.69,328.357,400.356z"/>
<path style="fill:#05351A;" d="M328.357,400.356c-5.415-14.957-19.197-25.895-35.693-27.182
	c-1.665-21.349-19.503-38.158-41.278-38.158c-3.89,0-7.645,0.562-11.215,1.565c16.38,4.629,28.633,19.079,29.998,36.592
	c16.496,1.287,30.279,12.225,35.693,27.182c20.112,4.334,35.187,22.213,35.187,43.62c0,1.86-0.127,3.689-0.348,5.49h22.495
	c0.22-1.801,0.348-3.63,0.348-5.49C363.544,422.569,348.469,404.69,328.357,400.356z"/>
<path style="fill:#0A6037;" d="M217.351,449.465c0.179-1.459,0.282-2.94,0.282-4.447c0-17.344-12.214-31.828-28.508-35.34
	c-4.387-12.118-15.553-20.98-28.917-22.022c-1.349-17.296-15.8-30.915-33.443-30.915c-13.927,0-25.87,8.485-30.947,20.566
	c-0.863-0.064-1.73-0.107-2.608-0.107c-18.942,0-34.352,15.079-34.906,33.887c-16.8,5.44-29.346,20.315-31.388,38.377H217.351z"/>
<path style="fill:#09512D;" d="M189.126,409.678c-4.387-12.118-15.553-20.98-28.917-22.022c-1.349-17.296-15.8-30.915-33.443-30.915
	c-3.94,0-7.71,0.7-11.223,1.947c12.19,4.351,21.124,15.55,22.171,28.968c13.364,1.043,24.532,9.905,28.917,22.022
	c16.294,3.511,28.508,17.996,28.508,35.34c0,1.507-0.102,2.99-0.282,4.447h22.495c0.179-1.459,0.282-2.94,0.282-4.447
	C217.633,427.674,205.419,413.189,189.126,409.678z"/>
<path style="fill:#00A35C;" d="M503.564,267.85c0-29.746-16.14-55.38-39.412-67.16c-0.083-47.821-35.766-86.559-79.775-86.559
	c-44.061,0-79.779,38.828-79.779,86.726c0,0.403,0.022,0.8,0.028,1.201c-21.891,12.319-36.861,37.148-36.861,65.793
	c0,36.015,23.652,66.014,54.99,72.671c11.486,24.302,34.759,40.94,61.623,40.94c26.662,0,49.79-16.388,61.365-40.393
	C478.478,335.666,503.564,304.944,503.564,267.85z"/>
<path style="fill:#007F42;" d="M464.152,200.69c-0.083-47.821-35.766-86.559-79.775-86.559c-3.82,0-7.571,0.31-11.246,0.875
	c38.682,5.938,68.451,42.015,68.527,85.685c23.272,11.779,39.412,37.415,39.412,67.16c0,37.094-25.086,67.817-57.822,73.216
	c-9.911,20.556-28.297,35.515-50.116,39.393c3.661,0.65,7.415,1,11.246,1c26.662,0,49.79-16.388,61.365-40.393
	c32.736-5.4,57.822-36.122,57.822-73.216C503.564,238.104,487.424,212.47,464.152,200.69z"/>
<path style="fill:#00A35C;" d="M234.187,209.706c0-28.479-15.452-53.021-37.733-64.298c-0.08-45.783-34.242-82.871-76.376-82.871
	c-42.184,0-76.379,37.174-76.379,83.03c0,0.386,0.021,0.765,0.027,1.15c-20.957,11.794-35.29,35.564-35.29,62.99
	c0,34.48,22.645,63.201,52.647,69.573c10.997,23.266,33.278,39.195,58.996,39.195c25.526,0,47.668-15.689,58.75-38.672
	C210.17,274.632,234.187,245.219,234.187,209.706z"/>
<path style="fill:#007F42;" d="M196.455,145.408c-0.08-45.783-34.242-82.871-76.376-82.871c-3.822,0-7.575,0.314-11.246,0.903
	c36.801,5.906,65.055,40.339,65.127,81.968c22.28,11.278,37.733,35.82,37.733,64.298c0,35.513-24.018,64.926-55.358,70.096
	c-9.416,19.529-26.822,33.785-47.499,37.631c3.655,0.679,7.411,1.042,11.244,1.042c25.526,0,47.668-15.689,58.75-38.672
	c31.34-5.17,55.358-34.584,55.358-70.096C234.187,181.227,218.735,156.684,196.455,145.408z"/>
<path d="M503.324,441.029H394.101v-51.792c23.851-3.208,44.99-18.104,57.282-40.687c16.331-3.733,31.167-13.188,42.142-26.947
	c11.914-14.937,18.476-34.027,18.476-53.754c0-30.009-15.366-57.784-39.543-72.211c-2.519-50.043-41.096-89.945-88.079-89.945
	c-14.789,0-29.422,4.025-42.316,11.64c-4.012,2.369-5.344,7.541-2.975,11.552c2.37,4.013,7.543,5.344,11.553,2.975
	c10.298-6.081,21.964-9.296,33.738-9.296c39.263,0,71.265,35.053,71.339,78.139c0.006,3.175,1.793,6.078,4.626,7.512
	c21.132,10.695,34.785,34.102,34.785,59.633c0,32.222-21.821,60.12-50.759,64.893c-2.71,0.448-5.032,2.185-6.225,4.66
	c-9.05,18.768-25.402,31.455-44.044,34.758v-74.645l41.516-38.177c3.429-3.154,3.653-8.49,0.499-11.919
	c-3.155-3.429-8.49-3.654-11.919-0.499l-30.096,27.676v-56.312c0-4.659-3.777-8.436-8.436-8.436s-8.436,3.777-8.436,8.436v102.1
	l-30.096-27.676c-3.429-3.155-8.766-2.93-11.919,0.499c-3.154,3.429-2.93,8.765,0.499,11.919l41.517,38.177v29.252
	c-19.892-2.563-37.435-15.725-46.848-35.641c-1.125-2.381-3.298-4.1-5.873-4.646c-27.992-5.947-48.308-33.038-48.308-64.419
	c0-24.744,12.478-47.139,32.564-58.442c2.688-1.513,4.336-4.372,4.298-7.455c-0.002-0.234-0.01-0.466-0.018-0.697
	c-0.005-0.134-0.01-0.267-0.01-0.4c0-17.573,5.186-34.177,14.997-48.015c2.695-3.801,1.798-9.067-2.002-11.76
	c-3.801-2.696-9.067-1.797-11.76,2.002c-11.177,15.764-17.381,34.439-18.045,54.212c-22.878,14.919-36.894,41.492-36.894,70.556
	c0,37.804,24,70.734,57.638,79.942c12.661,23.845,35.055,39.276,60.263,41.746v51.492h-5.343
	c-1.243-22.077-16.334-41.283-37.349-47.768c-6.594-14.029-19.402-24.201-34.463-27.499c-4.938-22.445-25.143-39.182-48.688-39.182
	c-18.156,0-34.619,9.758-43.395,25.29c-17.283,0.657-32.822,9.89-41.748,24.194c-5.563-15.304-19.814-26.447-36.497-27.645V326.24
	c22.773-3.166,42.938-17.41,54.72-38.958c15.651-3.616,29.865-12.696,40.388-25.888c11.458-14.363,17.768-32.72,17.768-51.688
	c0-28.788-14.709-55.441-37.868-69.344c-2.513-48.011-39.564-86.261-84.678-86.261c-17.305,0-33.95,5.581-48.137,16.142
	c-3.736,2.782-4.511,8.067-1.73,11.804c2.781,3.736,8.066,4.511,11.804,1.73c11.252-8.378,24.414-12.805,38.063-12.805
	c37.391,0,67.869,33.398,67.94,74.45c0.006,3.175,1.793,6.078,4.626,7.512c20.112,10.179,33.106,32.464,33.106,56.772
	c0,30.675-20.762,57.232-48.295,61.773c-2.71,0.448-5.032,2.185-6.225,4.66c-8.545,17.72-23.924,29.748-41.484,33.008v-70.88
	l39.632-36.443c3.429-3.154,3.652-8.49,0.499-11.919c-3.153-3.43-8.49-3.654-11.919-0.499l-28.212,25.942v-53.094
	c0-4.659-3.777-8.436-8.436-8.436c-4.659,0-8.436,3.777-8.436,8.436v96.931l-28.211-25.942c-3.43-3.155-8.766-2.93-11.919,0.499
	c-3.154,3.429-2.93,8.766,0.499,11.919l39.63,36.443v27.438c-18.756-2.566-35.272-15.047-44.167-33.865
	c-1.125-2.381-3.298-4.1-5.873-4.646c-26.633-5.661-45.964-31.45-45.964-61.325c0-23.561,11.875-44.881,30.992-55.639
	c2.686-1.512,4.334-4.366,4.298-7.448c-0.002-0.228-0.009-0.456-0.017-0.683c-0.003-0.123-0.009-0.245-0.009-0.37
	c0-10.434,1.923-20.524,5.715-29.989c1.128-2.812,2.427-5.574,3.864-8.212c2.228-4.092,0.718-9.214-3.374-11.442
	c-4.092-2.23-9.215-0.719-11.442,3.373c-1.751,3.216-3.335,6.582-4.707,10.006c-4.156,10.371-6.459,21.339-6.862,32.655
	C13.417,156.324,0,181.824,0,209.706c0,36.297,23.018,67.926,55.296,76.84c12.138,22.755,33.507,37.519,57.579,39.99v24.129
	c-9.232,3.226-17.133,9.604-22.216,18.171c-20.486,1.165-37.039,16.295-40.247,36.249c-15.109,6.71-26.342,20.018-30.478,35.942
	H8.436c-4.659,0-8.436,3.777-8.436,8.436c0,4.659,3.777,8.436,8.436,8.436h18.48H217.35h145.845h140.129
	c4.659,0,8.436-3.777,8.436-8.436C511.759,444.806,507.982,441.029,503.324,441.029z M60.9,419.112
	c3.393-1.099,5.728-4.212,5.833-7.777c0.425-14.411,12.054-25.7,26.475-25.7c0.578,0,1.21,0.027,1.987,0.084
	c3.614,0.261,6.995-1.803,8.398-5.145c3.932-9.354,13.027-15.399,23.171-15.399c13.026,0,24.022,10.162,25.033,23.135
	c0.324,4.141,3.613,7.431,7.755,7.755c2.3,0.179,4.524,0.684,6.63,1.454c0.009,0.003,0.017,0.008,0.026,0.011
	c0.391,0.144,0.776,0.299,1.158,0.461c0.082,0.035,0.165,0.07,0.247,0.106c0.357,0.155,0.71,0.318,1.057,0.489
	c0.118,0.058,0.234,0.12,0.351,0.18c0.481,0.246,0.952,0.508,1.414,0.783c0.252,0.151,0.506,0.297,0.752,0.457
	c0.187,0.12,0.367,0.249,0.549,0.372c0.277,0.189,0.552,0.381,0.822,0.581c0.153,0.114,0.304,0.228,0.453,0.345
	c0.326,0.254,0.648,0.516,0.961,0.787c0.087,0.074,0.174,0.145,0.26,0.22c0.831,0.736,1.614,1.529,2.343,2.371
	c0.067,0.078,0.133,0.156,0.199,0.235c0.307,0.363,0.603,0.736,0.89,1.117c0.055,0.073,0.112,0.145,0.166,0.219
	c0.655,0.892,1.252,1.832,1.788,2.813c0.071,0.13,0.138,0.263,0.208,0.395c0.19,0.363,0.371,0.733,0.544,1.108
	c0.069,0.148,0.138,0.296,0.204,0.445c0.213,0.486,0.415,0.979,0.598,1.48c0.007,0.018,0.014,0.034,0.02,0.052
	c0.989,2.732,3.315,4.763,6.155,5.375c0.754,0.162,1.493,0.36,2.22,0.583c0.237,0.073,0.467,0.162,0.702,0.241
	c0.484,0.162,0.966,0.327,1.437,0.515c0.272,0.109,0.536,0.232,0.804,0.349c0.421,0.184,0.84,0.371,1.25,0.575
	c0.276,0.137,0.544,0.285,0.814,0.431c0.388,0.209,0.772,0.425,1.147,0.652c0.267,0.161,0.53,0.328,0.791,0.498
	c0.364,0.237,0.723,0.484,1.075,0.738c0.251,0.181,0.499,0.362,0.743,0.551c0.349,0.27,0.687,0.551,1.022,0.836
	c0.227,0.193,0.457,0.385,0.678,0.585c0.343,0.312,0.671,0.637,0.998,0.964c0.193,0.193,0.393,0.382,0.58,0.581
	c0.368,0.391,0.716,0.799,1.061,1.209c0.128,0.153,0.264,0.297,0.389,0.452c0.46,0.574,0.899,1.164,1.313,1.773
	c0.087,0.127,0.162,0.263,0.246,0.391c0.319,0.486,0.63,0.977,0.919,1.482c0.13,0.229,0.247,0.467,0.371,0.7
	c0.224,0.418,0.444,0.837,0.647,1.266c0.126,0.267,0.238,0.54,0.355,0.81c0.178,0.411,0.35,0.822,0.508,1.242
	c0.108,0.288,0.207,0.579,0.306,0.871c0.141,0.416,0.273,0.835,0.395,1.259c0.085,0.3,0.166,0.602,0.243,0.905
	c0.107,0.43,0.201,0.863,0.288,1.299c0.061,0.304,0.12,0.608,0.171,0.916c0.024,0.143,0.036,0.288,0.057,0.432H37.627
	C41.652,430.774,50.116,422.605,60.9,419.112z M225.888,441.029c-0.007-0.08-0.024-0.159-0.03-0.238
	c-0.097-1.007-0.222-2.008-0.387-2.997c-0.01-0.059-0.023-0.116-0.033-0.174c-0.172-1.009-0.377-2.008-0.617-2.996
	c-0.01-0.043-0.018-0.085-0.029-0.127c-0.241-0.979-0.52-1.944-0.824-2.898c-0.033-0.102-0.063-0.207-0.097-0.309
	c-0.3-0.918-0.634-1.822-0.993-2.716c-0.052-0.129-0.102-0.259-0.155-0.387c-0.36-0.875-0.749-1.735-1.163-2.582
	c-0.065-0.134-0.13-0.267-0.197-0.4c-0.422-0.842-0.868-1.67-1.34-2.482c-0.072-0.123-0.144-0.244-0.217-0.367
	c-0.486-0.819-0.995-1.623-1.532-2.408c-0.065-0.096-0.133-0.189-0.199-0.283c-0.56-0.806-1.141-1.597-1.751-2.364
	c-0.038-0.048-0.079-0.094-0.117-0.143c-0.638-0.796-1.3-1.572-1.991-2.323c-0.008-0.008-0.015-0.017-0.022-0.025
	c-0.684-0.742-1.397-1.459-2.13-2.155c-0.064-0.061-0.126-0.124-0.19-0.184c-0.705-0.661-1.435-1.297-2.183-1.913
	c-0.1-0.082-0.199-0.166-0.3-0.249c-0.736-0.595-1.493-1.166-2.268-1.715c-0.12-0.085-0.24-0.17-0.36-0.254
	c-0.774-0.538-1.567-1.052-2.377-1.541c-0.127-0.076-0.255-0.152-0.382-0.227c-0.821-0.485-1.657-0.946-2.51-1.379
	c-0.117-0.06-0.236-0.115-0.354-0.173c-0.88-0.435-1.774-0.848-2.687-1.226c-0.081-0.034-0.163-0.063-0.244-0.096
	c-0.957-0.389-1.928-0.752-2.918-1.075c-0.003-0.001-0.007-0.003-0.011-0.004c-0.043-0.087-0.092-0.168-0.135-0.254
	c-0.341-0.683-0.698-1.354-1.074-2.014c-0.192-0.337-0.397-0.666-0.597-0.998c-0.243-0.399-0.488-0.797-0.743-1.188
	c-0.245-0.377-0.497-0.747-0.755-1.115c-0.224-0.319-0.454-0.633-0.686-0.946c-0.292-0.395-0.585-0.788-0.891-1.172
	c-0.18-0.225-0.369-0.441-0.553-0.661c-0.711-0.855-1.454-1.68-2.231-2.476c-0.134-0.137-0.262-0.279-0.397-0.414
	c-0.386-0.384-0.785-0.752-1.185-1.121c-0.231-0.213-0.461-0.425-0.697-0.633c-0.382-0.336-0.77-0.666-1.166-0.99
	c-0.288-0.236-0.581-0.463-0.875-0.692c-0.367-0.283-0.731-0.569-1.108-0.841c-0.53-0.384-1.072-0.75-1.62-1.109
	c-0.146-0.096-0.285-0.202-0.433-0.296c6.148-10.386,17.402-16.989,29.836-16.989c0.761,0,1.587,0.035,2.599,0.109
	c3.609,0.269,6.994-1.804,8.397-5.145c5.161-12.282,17.103-20.218,30.422-20.218c17.103,0,31.54,13.344,32.868,30.378
	c0.323,4.141,3.613,7.431,7.755,7.754c12.867,1.003,24.021,9.498,28.417,21.643c0.989,2.732,3.315,4.763,6.155,5.375
	c15.564,3.354,27.11,16.738,28.407,32.428H225.888V441.029z"/>
<g>
</g>
<g>
</g>
<g>
</g>
<g>
</g>
<g>
</g>
<g>
</g>
<g>
</g>
<g>
</g>
<g>
</g>
<g>
</g>
<g>
</g>
<g>
</g>
<g>
</g>
<g>
</g>
<g>
</g>
</svg>
