<?xml version="1.0" encoding="iso-8859-1"?>
<!-- Generator: Adobe Illustrator 19.0.0, SVG Export Plug-In . SVG Version: 6.00 Build 0)  -->
<svg version="1.1" id="Layer_1" xmlns="http://www.w3.org/2000/svg" xmlns:xlink="http://www.w3.org/1999/xlink" x="0px" y="0px"
	 viewBox="0 0 512 512" style="enable-background:new 0 0 512 512;" xml:space="preserve">
<polygon style="fill:#F7A676;" points="503.83,362.213 503.83,394.894 471.149,394.894 449.362,318.638 "/>
<polygon style="fill:#FBCFA3;" points="471.149,307.745 471.149,394.894 8.17,394.894 8.17,362.213 "/>
<polygon style="fill:#F5849F;" points="503.83,149.787 503.83,362.213 471.149,362.213 449.362,256 471.149,149.787 "/>
<rect x="8.17" y="149.787" style="fill:#FFADC1;" width="462.979" height="212.426"/>
<path style="fill:#E0315B;" d="M384,84.426h-32.681v168.851h98.043V149.787C449.362,113.838,419.949,84.426,384,84.426z"/>
<g>
	<path style="fill:#EA5A7D;" d="M351.319,84.426H128c-35.949,0-65.362,29.413-65.362,65.362v103.489h354.043V149.787
		C416.681,113.838,387.268,84.426,351.319,84.426z"/>
	<path style="fill:#EA5A7D;" d="M416.681,220.596H384l32.681,87.149h32.681v-54.468
		C449.362,235.302,434.655,220.596,416.681,220.596z"/>
</g>
<path style="fill:#F5849F;" d="M416.681,253.277v54.468H62.638v-54.468c0-17.974,14.706-32.681,32.681-32.681H384
	C401.974,220.596,416.681,235.302,416.681,253.277z"/>
<path d="M503.83,141.617h-46.763c-4.079-36.714-35.284-65.362-73.067-65.362H128c-37.783,0-68.988,28.648-73.067,65.362H8.17
	c-4.512,0-8.17,3.658-8.17,8.17v277.787c0,4.512,3.658,8.17,8.17,8.17s8.17-3.658,8.17-8.17v-24.511H495.66v24.511
	c0,4.512,3.658,8.17,8.17,8.17s8.17-3.658,8.17-8.17V149.787C512,145.275,508.342,141.617,503.83,141.617z M128,92.596h256
	c31.534,0,57.187,25.652,57.191,57.185c0,0.017,0,70.838,0,70.838c-6.832-5.141-15.321-8.193-24.511-8.193H95.319
	c-9.19,0-17.678,3.051-24.511,8.193v-70.831C70.809,118.251,96.464,92.596,128,92.596z M16.34,386.723V157.957h38.128v149.787
	c0,4.512,3.658,8.17,8.17,8.17H128c4.512,0,8.17-3.658,8.17-8.17c0-4.512-3.658-8.17-8.17-8.17H70.809v-46.298
	c0-13.516,10.995-24.511,24.511-24.511h321.362c13.516,0,24.511,10.995,24.511,24.511v46.298H160.681c-4.512,0-8.17,3.658-8.17,8.17
	c0,4.512,3.658,8.17,8.17,8.17h288.681c4.512,0,8.17-3.658,8.17-8.17V157.957h38.128v196.085H40.851c-4.512,0-8.17,3.658-8.17,8.17
	c0,4.512,3.658,8.17,8.17,8.17H495.66v16.34H16.34z"/>
<g>
</g>
<g>
</g>
<g>
</g>
<g>
</g>
<g>
</g>
<g>
</g>
<g>
</g>
<g>
</g>
<g>
</g>
<g>
</g>
<g>
</g>
<g>
</g>
<g>
</g>
<g>
</g>
<g>
</g>
</svg>
