<svg height="512" viewBox="0 0 128 128" width="512" xmlns="http://www.w3.org/2000/svg"><g><g><path d="m38 1.747h52a0 0 0 0 1 0 0v7.562a4 4 0 0 1 -4 4h-44a4 4 0 0 1 -4-4v-7.562a0 0 0 0 1 0 0z" fill="#77718c"/><path d="m104.25 56.532v15.968a9 9 0 0 1 -9 9h-17.25a9 9 0 0 1 -9-9v-59.191h-10v59.191a9 9 0 0 1 -9 9h-17.25a9 9 0 0 1 -9-9v-15.968h-10v15.968a19 19 0 0 0 19 19h17.25a18.882 18.882 0 0 0 9-2.273v8.03a2 2 0 0 0 2 2h6a2 2 0 0 0 2-2v-8.03a18.882 18.882 0 0 0 9 2.273h17.25a19 19 0 0 0 19-19v-15.968z" fill="#ffe87f"/><path d="m72.364 119.162c0 4.619-3.745 7.085-8.364 7.085s-8.364-2.466-8.364-7.085 8.364-11.562 8.364-11.562 8.364 6.942 8.364 11.562z" fill="#86d8fc"/><path d="m68.172 103.429a4.172 4.172 0 1 1 -4.172-4.172 4.172 4.172 0 0 1 4.172 4.172z" fill="#77718c"/><path d="m97.852 111.405c0 4.619-3.745 7.085-8.365 7.085s-8.364-2.466-8.364-7.085 8.364-11.561 8.364-11.561 8.365 6.941 8.365 11.561z" fill="#86d8fc"/><path d="m93.659 95.672a4.172 4.172 0 1 1 -4.172-4.172 4.172 4.172 0 0 1 4.172 4.172z" fill="#77718c"/><path d="m30.148 111.405c0 4.619 3.745 7.085 8.364 7.085s8.365-2.466 8.365-7.085-8.365-11.561-8.365-11.561-8.364 6.941-8.364 11.561z" fill="#86d8fc"/><path d="m34.341 95.672a4.172 4.172 0 1 0 4.171-4.172 4.171 4.171 0 0 0 -4.171 4.172z" fill="#77718c"/><path d="m121.246 24.375h-23.992l-3.385 21.75h30.761z" fill="#86d8fc"/><path d="m93.869 46.125-1.619 10.407h34l-1.62-10.407z" fill="#77718c"/><path d="m6.754 24.375h23.992l3.384 21.75h-30.761z" fill="#86d8fc"/><path d="m34.13 46.125 1.62 10.407h-34l1.619-10.407z" fill="#77718c"/></g><g><path d="m69 47.25a1.75 1.75 0 0 0 -1.75 1.75v3.872a1.75 1.75 0 0 0 3.5 0v-3.872a1.75 1.75 0 0 0 -1.75-1.75z"/><path d="m127.979 56.263-1.619-10.407-3.384-21.75a1.751 1.751 0 0 0 -1.73-1.481h-23.992a1.751 1.751 0 0 0 -1.73 1.481l-3.384 21.75-1.62 10.407a1.752 1.752 0 0 0 1.73 2.019h10.25v14.218a7.258 7.258 0 0 1 -7.25 7.25h-17.25a7.258 7.258 0 0 1 -7.25-7.25v-8.5a1.75 1.75 0 0 0 -3.5 0v8.5a10.762 10.762 0 0 0 10.75 10.75h17.25a10.762 10.762 0 0 0 10.75-10.75v-14.218h6.5v14.218a17.269 17.269 0 0 1 -17.25 17.25h-17.25a17.239 17.239 0 0 1 -8.168-2.062 1.749 1.749 0 0 0 -2.582 1.539v8.03a.25.25 0 0 1 -.25.25h-6a.25.25 0 0 1 -.25-.25v-8.03a1.75 1.75 0 0 0 -2.582-1.539 17.239 17.239 0 0 1 -8.168 2.062h-17.25a17.269 17.269 0 0 1 -17.25-17.25v-14.218h6.5v14.218a10.762 10.762 0 0 0 10.75 10.75h17.25a10.762 10.762 0 0 0 10.75-10.75v-57.441h6.5v22.816a1.75 1.75 0 0 0 3.5 0v-22.816h15.25a5.756 5.756 0 0 0 5.75-5.75v-7.562a1.75 1.75 0 0 0 -1.75-1.747h-52a1.75 1.75 0 0 0 -1.75 1.75v7.559a5.756 5.756 0 0 0 5.75 5.75h15.25v57.441a7.258 7.258 0 0 1 -7.25 7.25h-17.25a7.258 7.258 0 0 1 -7.25-7.25v-14.218h10.25a1.75 1.75 0 0 0 1.729-2.019l-1.619-10.407-3.384-21.75a1.751 1.751 0 0 0 -1.73-1.481h-23.992a1.751 1.751 0 0 0 -1.73 1.481l-3.384 21.75-1.62 10.407a1.752 1.752 0 0 0 1.73 2.019h10.25v14.218a20.774 20.774 0 0 0 20.75 20.75h.364a5.9 5.9 0 0 0 2.032 7.288 32.439 32.439 0 0 0 -5.338 6.462 1.75 1.75 0 0 0 3.029 1.755 32 32 0 0 1 5.683-6.582c2.921 2.652 6.607 6.8 6.607 9.235 0 3.933-3.417 5.335-6.614 5.335a8.421 8.421 0 0 1 -4.127-.964 1.75 1.75 0 0 0 -1.721 3.048 11.9 11.9 0 0 0 5.848 1.416c6.049 0 10.114-3.55 10.114-8.835 0-3.75-4.052-8.276-6.743-10.871a5.894 5.894 0 0 0 2.027-7.284h6.089a20.778 20.778 0 0 0 7.25-1.311v5.318a3.749 3.749 0 0 0 1.682 3.124 5.895 5.895 0 0 0 1.7 7.91c-2.691 2.595-6.742 7.121-6.742 10.871-.004 5.281 4.06 8.835 10.11 8.835s10.114-3.551 10.114-8.835c0-3.75-4.051-8.276-6.742-10.871a5.895 5.895 0 0 0 1.7-7.91 3.749 3.749 0 0 0 1.682-3.124v-5.321a20.773 20.773 0 0 0 7.246 1.311h6.089a5.894 5.894 0 0 0 2.027 7.284c-2.691 2.595-6.743 7.121-6.743 10.871 0 5.285 4.064 8.835 10.114 8.835s10.113-3.55 10.113-8.835c0-3.75-4.052-8.276-6.743-10.871a5.9 5.9 0 0 0 2.027-7.284h.364a20.774 20.774 0 0 0 20.752-20.75v-14.218h10.25a1.75 1.75 0 0 0 1.729-2.019zm-88.229-46.954v-5.809h48.5v5.809a2.253 2.253 0 0 1 -2.25 2.25h-44a2.253 2.253 0 0 1 -2.25-2.25zm-31.497 16.816h20.994l2.841 18.25h-26.676zm-3.385 21.75h27.764l1.075 6.907h-29.914zm36.067 47.8a2.426 2.426 0 0 1 -2.421 2.422 2.422 2.422 0 1 1 2.423-2.422zm25.487 7.757a2.426 2.426 0 0 1 -2.422 2.419 2.422 2.422 0 1 1 2.423-2.422zm4.192 15.733c0 3.933-3.417 5.335-6.614 5.335s-6.614-1.4-6.614-5.335c0-2.435 3.692-6.591 6.614-9.242 2.922 2.648 6.614 6.804 6.614 9.239zm25.486-7.76c0 3.933-3.417 5.335-6.615 5.335s-6.614-1.4-6.614-5.335c0-2.435 3.692-6.59 6.614-9.242 2.924 2.652 6.615 6.807 6.615 9.242zm-4.191-15.733a2.425 2.425 0 0 1 -2.421 2.422 2.422 2.422 0 1 1 2.423-2.422zm6.844-69.547h20.994l2.841 18.25h-26.676zm15.5 28.657h-19.96l1.075-6.907h27.764l1.075 6.907z"/></g></g></svg>