<svg id="Layer_3" height="512" viewBox="0 0 64 64" width="512" xmlns="http://www.w3.org/2000/svg" data-name="Layer 3"><path d="m31 16h2v-8h1v-6h-4v6h1z"/><path d="m39 13h3a1 1 0 0 0 1-1v-4h1v-6h-4v6h1v3h-3a1 1 0 0 0 -1 1v4h2z"/><path d="m49 13h3a1 1 0 0 0 1-1v-4h1v-6h-4v6h1v3h-3a1 1 0 0 0 -1 1v4h2z"/><path d="m21 12a1 1 0 0 0 1 1h3v3h2v-4a1 1 0 0 0 -1-1h-3v-3h1v-6h-4v6h1z"/><path d="m11 12a1 1 0 0 0 1 1h3v3h2v-4a1 1 0 0 0 -1-1h-3v-3h1v-6h-4v6h1z"/><path d="m33 48h-2v8h-1v6h4v-6h-1z"/><path d="m43 52a1 1 0 0 0 -1-1h-3v-3h-2v4a1 1 0 0 0 1 1h3v3h-1v6h4v-6h-1z"/><path d="m53 52a1 1 0 0 0 -1-1h-3v-3h-2v4a1 1 0 0 0 1 1h3v3h-1v6h4v-6h-1z"/><path d="m25 51h-3a1 1 0 0 0 -1 1v4h-1v6h4v-6h-1v-3h3a1 1 0 0 0 1-1v-4h-2z"/><path d="m15 51h-3a1 1 0 0 0 -1 1v4h-1v6h4v-6h-1v-3h3a1 1 0 0 0 1-1v-4h-2z"/><path d="m23 33h2v2h-2z"/><path d="m23 29h2v2h-2z"/><path d="m25 26a1 1 0 0 1 1-1h1v-2h-4v4h2z"/><path d="m29 23h2v2h-2z"/><path d="m33 23h2v2h-2z"/><path d="m39 29h2v2h-2z"/><path d="m39 38a1 1 0 0 1 -1 1h-1v2h4v-4h-2z"/><path d="m37 25h1a1 1 0 0 1 1 1v1h2v-4h-4z"/><path d="m39 33h2v2h-2z"/><path d="m25 38v-1h-2v4h4v-2h-1a1 1 0 0 1 -1-1z"/><path d="m29 39h2v2h-2z"/><path d="m33 39h2v2h-2z"/><path d="m37 27h-10v10h10zm-6 6h-2v-2h2zm4 0h-2v-2h2z"/><path d="m61 27.1v-7.1a3 3 0 0 0 -3-3h-52a3 3 0 0 0 -3 3v7.1a5 5 0 0 1 0 9.8v7.1a3 3 0 0 0 3 3h52a3 3 0 0 0 3-3v-7.1a5 5 0 0 1 0-9.8zm-14-6.1h2v2h-2zm-38 22h-2v-2h2zm-1-17a2 2 0 1 1 2-2 2 2 0 0 1 -2 2zm5 17h-2v-2h2zm4 0h-2v-2h2zm-1-17a2 2 0 1 1 2-2 2 2 0 0 1 -2 2zm27 16a1 1 0 0 1 -1 1h-20a1 1 0 0 1 -1-1v-20a1 1 0 0 1 1-1h20a1 1 0 0 1 1 1zm5 0a2 2 0 1 1 2-2 2 2 0 0 1 -2 2zm5-19h-2v-2h2zm5 17a2 2 0 1 1 -2-2 2 2 0 0 1 2 2zm-1-17h-2v-2h2z"/></svg>