<svg id="Layer_1" enable-background="new 0 0 512 512" height="512" viewBox="0 0 512 512" width="512" xmlns="http://www.w3.org/2000/svg"><g><g clip-rule="evenodd" fill-rule="evenodd"><path d="m309.179 361.348h-106.358c4.903 8.193 6.236 24.662 4.79 38.213h96.806c-1.446-13.551-.142-30.02 4.762-38.213z" fill="#365e7d"/><path d="m317.541 350.435c24.01-8.732 45.809 19.672 60.208 59.272 14.43 39.572 15.988 75.348-8.022 84.105-20.579 7.484-39.515-12.273-53.574-42.975h-120.305c-14.06 30.701-32.995 50.459-53.546 42.975-24.039-8.758-22.451-44.533-8.051-84.105 14.4-39.6 36.198-68.004 60.236-59.272 14.031 5.102 19.617 19.502 18.426 38.438-.313 5.102 1.049 5.84 5.357 5.84h75.459c3.912 0 5.727-1.049 5.358-5.867-1.389-18.909 4.394-33.309 18.454-38.411z" fill="#407093"/><path d="m206.393 471.9c11.595 0 21.034-9.469 21.034-21.063s-9.439-21.033-21.034-21.033c-11.594 0-21.061 9.439-21.061 21.033-.001 11.595 9.467 21.063 21.061 21.063z" fill="#365e7d"/><path d="m305.636 471.9c11.594 0 21.033-9.469 21.033-21.063s-9.439-21.033-21.033-21.033c-11.595 0-21.063 9.439-21.063 21.033 0 11.595 9.468 21.063 21.063 21.063z" fill="#365e7d"/><path d="m24.208 16.594h291.122c9.184 0 16.696 7.514 16.696 16.697v169.598c0 9.186-7.512 16.697-16.696 16.697h-291.122c-9.185 0-16.696-7.512-16.696-16.697v-169.598c0-9.184 7.511-16.697 16.696-16.697z" fill="#e9f5ff"/><path d="m286.189 16.594h29.142c9.184 0 16.696 7.514 16.696 16.697v169.598c0 9.186-7.512 16.697-16.696 16.697h-29.142c9.184 0 16.697-7.512 16.697-16.697v-169.598c0-9.184-7.513-16.697-16.697-16.697z" fill="#cbe2ff"/><path d="m139.722 219.586 30.217-5.557 29.877 5.557 11.112 64.092h-82.346z" fill="#407093"/><path d="m199.816 219.586 11.112 64.092h-29.112l-11.14-64.092z" fill="#365e7d"/><path d="m332.026 186.193v16.695c0 9.186-7.512 16.697-16.696 16.697h-291.122c-9.185 0-16.696-7.512-16.696-16.697v-16.695z" fill="#365e7d"/><path d="m332.026 186.193v16.695c0 9.186-7.512 16.697-16.696 16.697h-29.142c9.184 0 16.697-7.512 16.697-16.697v-16.695z" fill="#2b4d66"/></g><path d="m110.325 290.963c-4.024 0-7.285-3.26-7.285-7.285s3.261-7.285 7.285-7.285h118.859c4.025 0 7.285 3.26 7.285 7.285s-3.26 7.285-7.285 7.285z" fill="#61515e"/><path clip-rule="evenodd" d="m396.345 283.678h91.476c9.184 0 16.696-7.512 16.696-16.697v-233.69c0-9.184-7.513-16.697-16.696-16.697h-91.476c-9.184 0-16.696 7.514-16.696 16.697v233.69c-.001 9.185 7.512 16.697 16.696 16.697z" fill="#407093" fill-rule="evenodd"/><path clip-rule="evenodd" d="m458.708 283.678h29.112c9.184 0 16.696-7.512 16.696-16.697v-233.69c0-9.184-7.513-16.697-16.696-16.697h-29.112c9.156 0 16.668 7.514 16.668 16.697v233.69c0 9.185-7.512 16.697-16.668 16.697z" fill="#365e7d" fill-rule="evenodd"/><path clip-rule="evenodd" d="m442.068 250.625c17.404 0 31.578-14.172 31.578-31.578 0-17.377-14.174-31.549-31.578-31.549-17.377 0-31.55 14.172-31.55 31.549.001 17.406 14.173 31.578 31.55 31.578z" fill="#365e7d" fill-rule="evenodd"/><path clip-rule="evenodd" d="m442.068 187.498c17.433 0 31.578 14.115 31.578 31.549s-14.146 31.578-31.578 31.578c-5.244 0-10.205-1.275-14.542-3.543 10.092-5.271 17.008-15.846 17.008-28.035 0-12.16-6.916-22.734-17.008-28.006 4.337-2.268 9.298-3.543 14.542-3.543z" fill="#2b4d66" fill-rule="evenodd"/><path clip-rule="evenodd" d="m304.19 361.348h-29.112c-4.28 7.002-5.924 16.471-5.102 27.498.368 4.818-1.445 5.867-5.357 5.867h29.112c3.912 0 5.727-1.049 5.358-5.867-.795-11.028.821-20.496 5.101-27.498z" fill="#2b4d66" fill-rule="evenodd"/><path clip-rule="evenodd" d="m311.815 353.297c14.513 8.902 27.298 30.189 36.821 56.41 13.153 36.143 15.619 69.082-2.352 81.215 7.427 4.535 15.308 5.84 23.442 2.891 24.011-8.758 22.452-44.533 8.022-84.105-14.399-39.6-36.198-68.004-60.208-59.272-2.097.763-3.995 1.728-5.725 2.861z" fill="#365e7d" fill-rule="evenodd"/><path d="m372.137 262.758h-42.463c-18.199 0-34.726 7.455-46.716 19.445-12.02 11.99-19.446 28.547-19.446 46.717v24.916h36.88c3.486-4.422 9.779-8.871 15.193-10.629 15.108-4.904 28.942.623 41.131 13.635 21.827 23.328 41.727 78.094 38.694 109.814-1.588 16.584-8.731 28.943-23.132 34.188-10.829 3.939-21.175 2.098-30.756-4.082-7.455-4.82-14.4-12.332-20.665-21.771-4.393 2.779-9.638 4.395-15.222 4.395-7.881 0-15.024-3.176-20.184-8.363-3.486-3.459-6.038-7.795-7.37-12.672h-44.136c-1.332 4.877-3.912 9.213-7.37 12.672-5.188 5.188-12.302 8.363-20.184 8.363-5.612 0-10.828-1.615-15.25-4.395-6.265 9.439-13.182 16.951-20.637 21.771-9.609 6.18-19.955 8.022-30.756 4.082-12.587-4.594-19.645-14.656-22.31-28.234-2.607-13.408-.709-30.389 4.394-48.728 1.105-3.996 5.216-6.32 9.186-5.215 3.997 1.105 6.321 5.215 5.216 9.184-4.507 16.186-6.236 30.84-4.082 41.897 1.644 8.391 5.669 14.457 12.699 17.037 5.982 2.154 11.905 1.02 17.575-2.637 6.435-4.139 12.613-11.367 18.34-20.693-1.871-3.799-2.92-8.08-2.92-12.615 0-7.879 3.175-14.994 8.362-20.182 5.159-5.16 12.303-8.363 20.183-8.363 7.882 0 14.996 3.203 20.184 8.363 3.458 3.486 6.038 7.822 7.37 12.699h44.136c1.332-4.877 3.884-9.213 7.37-12.699 5.159-5.16 12.303-8.363 20.184-8.363 7.88 0 15.023 3.203 20.183 8.363 5.159 5.188 8.362 12.303 8.362 20.182 0 4.535-1.049 8.816-2.92 12.615 5.698 9.326 11.877 16.555 18.341 20.693 5.669 3.656 11.594 4.791 17.574 2.637 8.192-2.977 12.303-10.801 13.352-21.516 2.608-27.412-15.846-78.068-34.725-98.223-8.164-8.73-16.951-12.783-25.711-9.58-5.328 1.928-8.872 5.867-10.913 10.941-2.636 6.463-3.26 15.08-2.239 25.002.085.426.113.852.113 1.305 0 4.139-3.345 7.482-7.483 7.482h-87.109c-4.423 0-7.909-3.855-7.456-8.277 1.105-10.148.51-18.936-2.154-25.512-2.069-5.102-5.584-8.986-10.914-10.941-7.058-2.551-14.059-.482-20.721 4.904-8.702 7.029-16.781 19.359-23.727 34.668-1.7 3.77-6.15 5.441-9.921 3.742-3.77-1.701-5.442-6.123-3.741-9.895 7.88-17.348 17.376-31.578 28.006-40.195 10.771-8.701 22.621-11.848 35.178-7.285 6.123 2.24 10.942 5.783 14.599 10.432h36.908v-24.917c0-22.309 9.127-42.605 23.84-57.318 14.683-14.711 34.979-23.84 57.317-23.84h42.463v-80.645c0-4.139 3.373-7.514 7.512-7.514 4.14 0 7.484 3.375 7.484 7.514v88.129 11.734c0 2.523 1.049 4.82 2.722 6.492 1.672 1.672 3.968 2.693 6.49 2.693h91.476c2.522 0 4.818-1.021 6.491-2.693s2.692-3.969 2.692-6.492v-233.689c0-2.523-1.02-4.818-2.692-6.492-1.673-1.672-3.969-2.721-6.491-2.721h-91.476c-2.522 0-4.818 1.049-6.49 2.721-1.673 1.674-2.722 3.969-2.722 6.492v99.838c0 4.166-3.345 7.512-7.484 7.512s-7.512-3.346-7.512-7.512v-99.838c0-6.662 2.721-12.729 7.115-17.094 4.366-4.393 10.432-7.115 17.093-7.115h91.476c6.661 0 12.699 2.723 17.093 7.115 4.364 4.365 7.086 10.432 7.086 17.094v233.69c0 6.662-2.722 12.699-7.087 17.094-4.394 4.365-10.432 7.086-17.093 7.086h-91.476c-6.661 0-12.727-2.721-17.093-7.086-4.395-4.395-7.115-10.432-7.115-17.094v-4.223zm66.303-107.121c-4.138 0-7.483-3.373-7.483-7.512s3.346-7.484 7.483-7.484h7.257c4.167 0 7.512 3.346 7.512 7.484s-3.345 7.512-7.512 7.512zm-30.302-99.981c-4.139 0-7.484-3.344-7.484-7.512 0-4.139 3.346-7.484 7.484-7.484h67.862c4.167 0 7.512 3.346 7.512 7.484 0 4.168-3.345 7.512-7.512 7.512zm0 63.127c-4.139 0-7.484-3.344-7.484-7.482s3.346-7.512 7.484-7.512h67.862c4.167 0 7.512 3.373 7.512 7.512s-3.345 7.482-7.512 7.482zm0-31.549c-4.139 0-7.484-3.373-7.484-7.512s3.346-7.484 7.484-7.484h67.862c4.167 0 7.512 3.346 7.512 7.484 0 4.139-3.345 7.512-7.512 7.512zm33.93 92.752c10.8 0 20.551 4.365 27.638 11.451 7.06 7.059 11.453 16.838 11.453 27.609 0 10.801-4.394 20.58-11.453 27.639-7.087 7.059-16.838 11.451-27.638 11.451-10.772 0-20.552-4.393-27.609-11.451-7.087-7.059-11.452-16.838-11.452-27.639 0-10.771 4.365-20.551 11.452-27.609 7.058-7.085 16.837-11.451 27.609-11.451zm17.036 22.053c-4.365-4.365-10.375-7.059-17.036-7.059-6.634 0-12.643 2.693-17.008 7.059-4.366 4.365-7.058 10.375-7.058 17.008 0 6.662 2.692 12.672 7.058 17.037 4.365 4.365 10.374 7.059 17.008 7.059 6.661 0 12.671-2.693 17.036-7.059 4.337-4.365 7.029-10.375 7.029-17.037.001-6.633-2.692-12.643-7.029-17.008zm-348.779 89.121c-4.139 0-7.482-3.344-7.482-7.482 0-4.139 3.344-7.512 7.482-7.512h11.963l8.533-49.096h-106.613c-6.661 0-12.727-2.723-17.093-7.088-4.393-4.392-7.115-10.431-7.115-17.093v-16.695-66.928c0-4.139 3.373-7.482 7.512-7.482s7.484 3.344 7.484 7.482v59.416h309.518v-145.391c0-2.523-1.049-4.818-2.693-6.492-1.673-1.672-3.968-2.721-6.491-2.721h-291.122c-2.523 0-4.819 1.049-6.491 2.721-1.672 1.674-2.721 3.969-2.721 6.492v52.016c0 4.139-3.346 7.512-7.484 7.512s-7.512-3.374-7.512-7.512v-52.016c0-6.662 2.722-12.729 7.115-17.094 4.365-4.393 10.432-7.115 17.093-7.115h291.122c6.661 0 12.699 2.723 17.093 7.115 4.365 4.365 7.087 10.432 7.087 17.094v152.902 16.695c0 6.662-2.722 12.701-7.087 17.094-4.394 4.365-10.432 7.088-17.093 7.088h-106.613l8.505 49.096h11.963c4.139 0 7.512 3.373 7.512 7.512s-3.373 7.482-7.512 7.482c-39.63 0-79.23 0-118.86 0zm35.69-64.09-8.532 49.096h64.545l-8.532-49.096zm178.5-33.392h-309.519v9.211c0 2.523 1.049 4.82 2.721 6.463 1.672 1.674 3.969 2.723 6.491 2.723h291.122c2.523 0 4.818-1.049 6.491-2.723 1.645-1.643 2.693-3.939 2.693-6.463v-9.211zm-31.183 175.154h-37.332-37.304c1.389 5.527 1.928 11.707 1.758 18.367h71.092c-.17-6.66.397-12.84 1.786-18.367zm21.885 72.426c-2.467-2.438-5.84-3.969-9.581-3.969s-7.145 1.531-9.582 3.969c-2.467 2.465-3.969 5.84-3.969 9.58 0 3.742 1.502 7.145 3.969 9.582 2.438 2.465 5.841 3.969 9.582 3.969s7.114-1.504 9.581-3.969c2.438-2.438 3.969-5.84 3.969-9.582-.001-3.74-1.532-7.115-3.969-9.58zm-99.242 0c-2.466-2.438-5.84-3.969-9.582-3.969-3.741 0-7.143 1.531-9.581 3.969-2.466 2.465-3.968 5.84-3.968 9.58 0 3.742 1.502 7.145 3.968 9.582 2.439 2.465 5.84 3.969 9.581 3.969 3.742 0 7.116-1.504 9.582-3.969 2.439-2.438 3.969-5.84 3.969-9.582-.001-3.74-1.531-7.115-3.969-9.58z"/></g></svg>