<svg id="Capa_1" enable-background="new 0 0 512 512" height="512" viewBox="0 0 512 512" width="512" xmlns="http://www.w3.org/2000/svg"><g><g><path d="m237.5 499.5v-100.5h37v100.5c0 2.761-2.239 5-5 5h-27c-2.761 0-5-2.239-5-5z" fill="#845752"/><path d="m276 476.5h-40c-8.284 0-15-6.716-15-15 0-8.284 6.716-15 15-15h40c8.284 0 15 6.716 15 15 0 8.284-6.716 15-15 15z" fill="#7a4b4b"/><g><path d="m292.727 165.33s6.408-7.765 6.408-7.834c-.034-7.227-1.847-14.053-5.025-20.023l-7.958-5.89-1.844-9.084c-4.193-7.376-7.164-15.359-8.666-23.669l-4.363-7.501 3.234-7.5c6.868-4.655 11.465-11.839 12.043-20l-3.596-2.659-.335-12.342c-4.188-8.938-10.932-19.4-16.579-27.561-3.042-4.395-5.765-5.124-7.599-7.587-1.199-1.611-3.604-1.611-4.803 0-7.21 9.686-25.173 35.922-25.173 48.402 0 8.878 4.752 16.763 12.107 21.747v2.498c0 16.438-5.827 32.191-15.803 45.255-5.534 7.246-8.821 16.299-8.821 26.122 0 8.698 2.577 16.793 7.01 23.564 7.633 11.662 12.074 25.119 12.074 39.057v20.175h46.247v-23.234c0-3.281.243-6.548.722-9.771l-2.327-7.877 6.441-7.125c1.561-3.805 3.493-7.466 5.797-10.918 1.876-2.811 3.426-5.855 4.606-9.079z" fill="#ffbf54"/><path d="m239.918 181.269c-1.771-2.706-3.258-5.653-4.39-8.776-1.7-4.692-2.615-9.776-2.615-14.998 0-7.304 1.815-13.996 5.023-20.023 1.106-2.077 2.375-4.033 3.793-5.89 2.216-2.901 4.218-5.94 6.006-9.085 6.263-11.015 9.797-23.383 9.797-36.17v-2.498c-7.354-4.984-12.107-12.869-12.107-21.747 0-3.414 1.568-8.076 3.995-13.254 4.188-8.938 10.933-19.402 16.58-27.561-3.041-4.394-5.765-8.124-7.599-10.587-1.199-1.611-3.604-1.611-4.803 0-5.238 7.037-17.734 24.395-24.178 38.148l2.877 7.5-6.812 7.453c.549 8.2 5.152 15.375 12.047 20.047l5.638 7.5-6.767 7.5c-1.502 8.311-4.473 16.293-8.666 23.669-1.788 3.145 3.968 6.182 1.752 9.084-1.383 1.812-10.426 3.869-11.513 5.89-3.228 6.006-5.032 12.736-5.066 20.023l5.493 7.501-2.885 7.501c1.136 3.107 2.616 6.047 4.399 8.772 2.346 3.585 4.389 7.34 6.096 11.226l6.006 8.105-1.281 6.896c.822 4.204 1.253 8.494 1.253 12.83v20.175h20v-20.174c0-4.337-.43-8.626-1.253-12.83-1.008-5.154-2.607-10.178-4.725-15.001-1.705-3.886-3.748-7.641-6.095-11.226z" fill="#ffa442"/></g><g><path d="m274.59 401.5h-37.18c-8.44 0-16.351-2.253-23.176-6.182 0 0-17.348-9.509-17.348-40.341v-9.477h117.645v9.477l4.582 13.524c-5.793 19.098-23.533 32.999-44.523 32.999z" fill="#966a5b"/><path d="m210.887 377.977v-4.477c0-2.761 2.239-5 5-5l103.227.001c1.299-4.28 2-8.82 2-13.524v-9.477h-130.227v9.477c0 17.254 9.397 32.309 23.347 40.341-2.154-5.359-3.347-11.212-3.347-17.341z" fill="#845752"/></g><g><path d="m333.782 348.123h-135.564c-1.112 0-3.305-.028-3.305-.028-20.522-.477-45.832-6.182-53.897-24.731l-3.298-11.091c-1.929-9.909-7.183-18.863-14.894-25.38l-26.607-22.488.188-2 320.851-.009 1.528 2.009-26.607 22.488c-7.419 6.27-12.559 14.798-14.656 24.262-.082.372-7.669 5.962-7.669 5.962l2.199 9.041c-7.768 13.293-22.159 21.965-38.269 21.965z" fill="#ffa442"/><path d="m154.717 312.273c-.072-.37-.156-.742-.242-1.117-2.233-9.677-9.229-20.989-16.651-27.263l-20.503-19.488-3.869-2h-20l-.236 2 26.607 22.488c7.419 6.27 12.559 14.798 14.656 24.262.082.372 7.595 7.079 7.595 7.079l-2.125 7.924c7.767 13.292 22.158 21.964 38.268 21.964h20c-16.112 0-30.498-8.672-38.264-21.967-2.457-4.206-4.261-8.877-5.236-13.882z" fill="#ff8a3c"/></g><g><path d="m437.047 264.406h-319.726c-7.706 0-9.172-6.247-9.172-13.953 0-7.706 1.466-13.953 9.172-13.953h319.726c7.706 0 13.953 6.247 13.953 13.953 0 7.706-6.247 13.953-13.953 13.953z" fill="#ff8a3c"/><path d="m74.953 236.5c-7.706 0-13.953 6.247-13.953 13.953 0 7.706 6.247 13.953 13.953 13.953h42.368v-27.906z" fill="#e1761c"/></g><g><g><path d="m360 264.406s-1.319-15.491-20-15.491c-18.213 0-20 15.491-20 15.491 0 11.046 8.954 20 20 20s20-8.955 20-20z" fill="#ffbf54"/><path d="m320 264.406c4.88 4.013 11.397 5.943 20 5.943 8.64 0 15.138-2.075 20-5.943 0-11.106-9.069-20-20-20-10.848 0-20 8.83-20 20z" fill="#ffa442"/></g><g><path d="m192 264.406s-2.447-15.448-20-15.448c-17.468 0-20 15.448-20 15.448 0 11.046 8.954 20 20 20s20-8.955 20-20z" fill="#ffbf54"/><path d="m152 264.406c4.885 3.843 11.39 5.992 20 5.992 8.647 0 15.133-2.296 20-5.999-.004-11.042-8.956-19.993-20-19.993-10.963 0-20 8.785-20 20z" fill="#ffa442"/></g><g><path d="m365 219.627c0-19.56-16.466-44.482-22.672-53.179-1.166-1.634-3.574-1.683-4.804-.097-2.017 2.601-5.042 6.725-8.227 11.851 0 0-12.936 26.403-12.936 41.425 0 13.807 7.149 28.905 23.638 28.905 8.404 0 22.611-7.175 24.345-19.156.489-3.372.656-6.716.656-9.749z" fill="#fcef66"/><path d="m350 233.695c-21.01 0-25-20.261-25-34.068 0-7.222 1.741-14.548 4.298-21.425-6.788 10.924-14.298 26.402-14.298 41.425 0 13.807 3.99 34.068 25 34.068 16.816 0 22.611-12.338 24.345-24.319-3.54 2.671-8.206 4.319-14.345 4.319z" fill="#f7e242"/></g><g><path d="m197 220.627c0-19.534-16.422-45.072-22.647-54.05-1.163-1.678-3.628-1.725-4.855-.093-1.938 2.58-4.797 6.588-7.833 11.541 0 0-12.028 21.969-12.028 42.601 0 13.807 7.404 27.011 22.362 27.011 10.319 0 22.853-6.183 24.45-18.143.407-3.042.551-6.067.551-8.867z" fill="#fcef66"/><path d="m182 233.695c-21.01 0-25-19.261-25-33.068 0-7.569 1.906-15.331 4.666-22.601-6.882 11.227-14.666 27.305-14.666 42.601 0 13.807 3.99 33.068 25 33.068 17.179 0 22.853-12.24 24.45-24.2-3.553 2.6-8.25 4.2-14.45 4.2z" fill="#f7e242"/></g></g></g><path d="m437.047 229h-65.097c.364-2.943.55-6.07.55-9.373 0-26.366-25.488-59.54-26.573-60.939-1.377-1.777-3.48-2.842-5.728-2.902-2.238-.05-4.404.893-5.874 2.594-1.095 1.268-26.825 31.391-26.825 61.247 0 3.297.197 6.423.578 9.373h-19.339v-11.733c0-11.439 3.241-22.341 9.372-31.528 5.548-8.313 8.48-18.007 8.48-28.035 0-11.191-3.583-21.798-10.36-30.673-9.074-11.882-13.988-25.52-14.252-39.511 7.639-6.535 12.095-15.785 12.095-25.437 0-16.786-26.775-52.236-32.143-59.172-1.42-1.836-3.61-2.911-5.931-2.911s-4.511 1.075-5.932 2.91c-5.367 6.936-32.143 42.387-32.143 59.172 0 9.652 4.456 18.902 12.095 25.437-.264 13.992-5.178 27.629-14.252 39.511-6.777 8.875-10.36 19.482-10.36 30.673 0 9.873 2.847 19.442 8.234 27.672 7.098 10.843 10.849 22.929 10.849 34.95v8.675h-20.449c.293-2.648.457-5.429.457-8.373 0-26.305-25.424-60.412-26.506-61.851-1.376-1.831-3.514-2.931-5.803-2.99-2.289-.055-4.479.933-5.947 2.69-.266.318-6.575 7.913-12.992 19.021-2.072 3.587-.843 8.174 2.743 10.246 3.587 2.071 8.174.844 10.246-2.743 1.916-3.317 3.832-6.299 5.535-8.801 7.616 11.907 17.724 30.789 17.724 44.427 0 25.568-12.714 25.568-17.5 25.568-4.328 0-17.5 0-17.5-25.568 0-1.887.145-3.879.43-5.921.573-4.102-2.288-7.893-6.39-8.465-4.099-.574-7.892 2.288-8.465 6.39-.603 4.444-.82 9.826-.087 16.369h-65.034c-11.829 0-21.453 9.624-21.453 21.453s9.624 21.453 21.453 21.453h15.519l24.51 20.716c6.382 5.395 10.776 12.882 12.373 21.085 4.728 24.288 26.119 41.917 50.862 41.917h5.185c.32 26.983 20.512 49.261 46.597 52.856v31.34c-9.502 2.633-16.5 11.352-16.5 21.681s6.998 19.048 16.5 21.681v21.319c0 4.142 3.358 7.5 7.5 7.5s7.5-3.358 7.5-7.5v-20.5h22v20.5c0 4.142 3.358 7.5 7.5 7.5s7.5-3.358 7.5-7.5v-21.319c9.502-2.633 16.5-11.352 16.5-21.681s-6.998-19.048-16.5-21.681v-31.34c26.084-3.596 46.277-25.873 46.597-52.856h5.185c24.744 0 46.134-17.628 50.862-41.917 1.597-8.202 5.991-15.69 12.373-21.084l24.51-20.716h15.519c11.829 0 21.453-9.624 21.453-21.453s-9.622-21.453-21.451-21.453zm-84.547 34.5c0 6.893-5.607 12.5-12.5 12.5s-12.5-5.607-12.5-12.5c0-1.502.276-2.96.782-4.331 3.52 1.33 7.434 2.026 11.718 2.026 4.309 0 8.229-.669 11.744-1.952.489 1.35.756 2.784.756 4.257zm-12.721-87.551c7.6 11.549 17.721 30.012 17.721 43.678 0 26.568-13.172 26.568-17.5 26.568-11.612 0-17.5-8.939-17.5-26.568 0-16.327 10.413-33.879 17.279-43.678zm-113.586 1.212c-2.438-3.725-4.124-7.845-5.023-12.161h69.656c-.92 4.413-2.662 8.62-5.192 12.412-1.628 2.439-3.085 4.976-4.388 7.588h-50.496c-1.366-2.665-2.884-5.283-4.557-7.839zm1.497-41.027c1.529-2.002 2.952-4.051 4.286-6.134h48.048c1.333 2.084 2.757 4.132 4.286 6.134 3.176 4.159 5.347 8.861 6.446 13.866h-69.511c1.098-5.004 3.27-9.707 6.445-13.866zm51.384-74.051c0 5.427-2.566 10.519-7.102 14.251h-31.945c-4.535-3.732-7.102-8.824-7.102-14.251 0-1.41.507-3.375 1.413-5.749h43.324c.906 2.373 1.412 4.338 1.412 5.749zm-34.219 29.25h22.29c.518 8.093 2.279 16.042 5.239 23.667h-32.768c2.96-7.625 4.721-15.574 5.239-23.667zm11.146-71.295c5.098 7.068 10.035 14.536 14.027 21.296h-28.053c3.993-6.76 8.929-14.227 14.026-21.296zm-19.355 179.962h39.139c-1.346 5.583-2.046 11.37-2.046 17.267v11.733h-34.248v-8.674c.001-6.832-.971-13.657-2.845-20.326zm-52.886 59.29c.479 1.338.74 2.757.74 4.21 0 6.893-5.607 12.5-12.5 12.5s-12.5-5.607-12.5-12.5c0-1.483.27-2.928.767-4.288 3.524 1.301 7.444 1.983 11.733 1.983 4.562 0 8.439-.725 11.76-1.905zm-115.26-8.837c0-3.558 2.895-6.453 6.453-6.453h69.169c1.09 2.274 2.362 4.344 3.812 6.193-1.171 2.112-2.058 4.366-2.635 6.713h-70.346c-3.558 0-6.453-2.895-6.453-6.453zm176.5 188.547v-30h22v30zm31 30h-40c-4.136 0-7.5-3.364-7.5-7.5s3.364-7.5 7.5-7.5h40c4.136 0 7.5 3.364 7.5 7.5s-3.364 7.5-7.5 7.5zm-1.41-75h-37.18c-21.3 0-38.659-17.157-39.007-38.377h115.194c-.348 21.22-17.706 38.377-39.007 38.377zm112.745-112.834c-8.389 6.889-15.391 18.661-17.483 29.991h-139.512c-4.142 0-7.5 3.358-7.5 7.5s3.358 7.5 7.5 7.5h132.673c-6.798 8.865-17.479 14.467-29.231 14.467h-155.564c-11.752 0-22.433-5.602-29.231-14.467h46.354c4.142 0 7.5-3.358 7.5-7.5s-3.358-7.5-7.5-7.5h-53.193c-1.895-10.522-8.49-22.536-17.483-29.991l-10.956-9.26h32.11c3.561 11.064 13.949 19.094 26.181 19.094s22.62-8.03 26.181-19.094h50.755c4.142 0 7.5-3.358 7.5-7.5s-3.358-7.5-7.5-7.5h-50.238c-.557-2.262-1.402-4.439-2.511-6.487 1-1.547 1.537-1.545 3.926-6.419h112.203c1.067 2.212 2.303 4.228 3.702 6.037-1.215 2.157-2.134 4.462-2.725 6.869h-29.358c-4.142 0-7.5 3.358-7.5 7.5s3.358 7.5 7.5 7.5h29.883c3.562 11.064 13.95 19.094 26.182 19.094s22.62-8.03 26.181-19.094h32.11zm49.712-24.26h-70.343c-.575-2.342-1.462-4.589-2.629-6.697 1.432-1.849 2.687-3.924 3.764-6.209h69.207c3.558 0 6.453 2.895 6.453 6.453s-2.894 6.453-6.452 6.453z"/></g></svg>