<?xml version="1.0" encoding="iso-8859-1"?>
<!-- Generator: Adobe Illustrator 19.0.0, SVG Export Plug-In . SVG Version: 6.00 Build 0)  -->
<svg version="1.1" id="Layer_1" xmlns="http://www.w3.org/2000/svg" xmlns:xlink="http://www.w3.org/1999/xlink" x="0px" y="0px"
	 viewBox="0 0 512.001 512.001" style="enable-background:new 0 0 512.001 512.001;" xml:space="preserve">
<path style="fill:#607D8B;" d="M502.945,260.447c0,4.706-3.82,8.526-8.526,8.526h-17.052c-4.706,0-8.526,3.82-8.526,8.526
	c-4.544,117.63-103.58,209.3-221.21,204.764c-14.536-0.563-28.971-2.609-43.089-6.113c-21.093-5.388-41.231-14.016-59.681-25.577
	c-60.883-36.976-99.266-101.909-102.31-173.074c0-4.706-3.82-8.526-8.526-8.526H16.974c-4.706,0-8.526-3.82-8.526-8.526l0,0
	c0-136.549,110.699-247.248,247.248-247.248S502.945,123.897,502.945,260.447z"/>
<path style="fill:#CFD8DC;" d="M468.33,243.395c0,4.706-3.82,8.526-8.526,8.526h-17.052c-4.706,0-8.526,3.82-8.526,8.526
	c-4.544,117.63-103.58,209.3-221.21,204.764c-14.536-0.563-28.971-2.609-43.089-6.113c-8.696-2.31-17.239-5.158-25.577-8.526
	C83.663,413.476,45.484,348.561,42.551,277.498c0-4.706-3.82-8.526-8.526-8.526H16.974c-4.706,0-8.526-3.82-8.526-8.526l0,0
	C13.172,123.974,127.63,17.171,264.094,21.895c28.894,0.998,57.387,7.059,84.192,17.904
	C420.244,82.905,465.44,159.561,468.33,243.395z"/>
<g>
	<path style="fill:#00BCD4;" d="M306.851,473.592c0.043,0.793,0.043,1.594,0,2.387c-33.609,8.21-68.701,8.21-102.31,0
		c-0.043-0.793-0.043-1.594,0-2.387c0-28.255,22.9-51.155,51.155-51.155S306.851,445.337,306.851,473.592z"/>
	<path style="fill:#00BCD4;" d="M441.474,192.24h-18.927c-3.18-0.043-6.07-1.85-7.503-4.689
		c-44.948-88.072-152.782-123.036-240.862-78.088c-33.609,17.154-60.934,44.479-78.088,78.088c-1.432,2.839-4.323,4.647-7.503,4.689
		H69.578c-4.706-0.009-8.517-3.837-8.509-8.543c0-1.202,0.256-2.387,0.75-3.479l1.194-2.558
		C113.443,71.293,240.546,25.944,346.914,76.375c44.436,21.067,80.228,56.85,101.295,101.295l1.194,2.558
		c1.935,4.297,0.017,9.344-4.28,11.271C443.98,192.01,442.727,192.266,441.474,192.24z"/>
</g>
<path style="fill:#00838F;" d="M375.058,268.972c0.051,32.1-12.9,62.861-35.894,85.258c-3.061,3.044-6.301,5.891-9.719,8.526
	c-3.547,2.788-7.247,5.38-11.084,7.758l-2.984,1.705c-18.092,10.606-38.707,16.173-59.681,16.114
	c-5.712,0.009-11.408-0.418-17.052-1.279c-15.048-2.08-29.542-7.119-42.629-14.835l-2.984-1.705
	c-3.837-2.379-7.537-4.971-11.084-7.758c-3.419-2.634-6.659-5.482-9.719-8.526c-47.105-46.116-47.906-121.689-1.79-168.794
	c18.322-18.714,42.288-30.88,68.206-34.632c5.653-0.784,11.348-1.185,17.052-1.194C321.618,149.611,375.058,203.051,375.058,268.972
	z"/>
<path style="fill:#00BCD4;" d="M340.954,268.972c0.051,32.1-12.9,62.861-35.894,85.258c-3.061,3.044-6.301,5.891-9.719,8.526
	c-3.547,2.788-7.247,5.38-11.084,7.758l-2.984,1.705c-13.087,7.716-27.581,12.755-42.629,14.835
	c-15.048-2.08-29.542-7.119-42.629-14.835l-2.984-1.705c-3.837-2.379-7.537-4.971-11.084-7.758
	c-3.419-2.634-6.659-5.482-9.719-8.526c-47.105-46.116-47.906-121.689-1.79-168.794c18.322-18.714,42.288-30.88,68.206-34.632
	c39.585,5.712,73.671,30.872,90.8,67.013C337.058,233.795,340.989,251.273,340.954,268.972z"/>
<path d="M417.687,507.695c-4.706,0.034-8.551-3.751-8.594-8.458c-0.026-2.814,1.339-5.448,3.649-7.059
	c34.521-24.486,62.963-56.569,83.127-93.784c2.353-4.144,7.622-5.593,11.766-3.24c4.144,2.353,5.593,7.622,3.24,11.766
	c-21.468,39.398-51.683,73.347-88.327,99.24C421.123,507.158,419.426,507.695,417.687,507.695z"/>
<path d="M383.583,489.023c-4.689-0.469-8.1-4.647-7.639-9.336c0.247-2.447,1.535-4.672,3.547-6.096
	c38.323-23.548,69.281-57.37,89.35-97.62c2.123-4.212,7.255-5.917,11.467-3.794c4.212,2.123,5.917,7.255,3.794,11.467
	c-21.587,42.953-54.744,79.009-95.745,104.1C386.926,488.631,385.263,489.083,383.583,489.023z"/>
<path d="M94.474,507.695c-1.765,0.017-3.496-0.52-4.945-1.535c-36.61-25.901-66.791-59.851-88.242-99.24
	c-2.353-4.144-0.904-9.412,3.24-11.766c4.144-2.353,9.412-0.904,11.766,3.24l0,0c20.164,37.215,48.606,69.298,83.127,93.784
	c3.862,2.694,4.809,8.006,2.114,11.868C99.922,506.356,97.279,507.72,94.474,507.695z"/>
<path d="M127.809,489.023c-1.569-0.009-3.103-0.452-4.433-1.279c-41.001-25.091-74.166-61.147-95.745-104.1
	c-2.865-3.734-2.166-9.089,1.577-11.953c3.734-2.865,9.089-2.166,11.953,1.577c0.622,0.81,1.091,1.731,1.39,2.711
	c20.257,40.344,51.462,74.174,90.032,97.62c3.82,2.762,4.672,8.091,1.91,11.902C132.942,487.651,130.469,488.955,127.809,489.023z"
	/>
<path d="M255.696,490.643c-119.174,0.085-217.084-94.065-221.671-213.145H16.974c-4.63,0.009-9.063-1.876-12.277-5.201
	c-3.137-3.299-4.826-7.724-4.689-12.277C0.042,118.765,114.577,4.272,255.841,4.306C397.054,4.34,511.522,118.807,511.556,260.02
	c0.136,4.553-1.552,8.978-4.689,12.277c-3.257,3.368-7.758,5.252-12.448,5.201h-17.052
	C473.002,396.68,374.955,490.95,255.696,490.643z M34.026,260.447c9.225,0,16.779,7.324,17.052,16.54
	c3.879,91.141,67.379,168.811,155.937,190.722c32.21,7.818,65.836,7.818,98.047,0c88.285-22.167,151.461-99.777,155.255-190.722
	c0.273-9.216,7.827-16.54,17.052-16.54h17.052c0-131.843-106.879-238.722-238.722-238.722S16.974,128.604,16.974,260.447H34.026
	L34.026,260.447z"/>
<path d="M255.696,490.643c-17.896,0-35.732-2.148-53.116-6.394c-3.487-0.836-6.079-3.768-6.48-7.332
	c-0.085-1.108-0.119-2.217-0.085-3.325c0-32.961,26.72-59.681,59.681-59.681s59.681,26.72,59.681,59.681l0,0
	c0.06,1.108,0.06,2.217,0,3.325c-0.401,3.564-2.993,6.497-6.48,7.332C291.479,488.503,273.618,490.652,255.696,490.643z
	 M213.067,469.243c27.973,5.832,56.859,5.832,84.832,0c-2.353-23.429-23.25-40.506-46.67-38.161
	C231.048,433.111,215.088,449.071,213.067,469.243z"/>
<path d="M441.985,200.766h-18.927c-6.369-0.034-12.192-3.623-15.091-9.293c-42.8-83.885-145.501-117.187-229.387-74.388
	c-32.014,16.335-58.052,42.373-74.388,74.388c-2.899,5.67-8.722,9.259-15.091,9.293H70.09c-9.421,0.026-17.077-7.588-17.103-17
	c-0.009-2.43,0.503-4.826,1.501-7.042l1.194-2.643C108.064,63.424,240.231,16.191,350.879,68.565
	c46.304,21.92,83.595,59.203,105.515,105.515l1.194,2.643c3.862,8.585,0.026,18.68-8.56,22.542
	C446.811,200.263,444.415,200.775,441.985,200.766z M255.696,64.353c-78.855,0.409-150.549,45.843-184.584,116.974l-1.108,2.387
	h19.098c47.139-92.241,160.132-128.808,252.381-81.66c35.135,17.955,63.705,46.534,81.66,81.66h18.927l-1.108-2.472
	C406.791,109.924,334.782,64.49,255.696,64.353z"/>
<path d="M255.696,396.859c-22.483,0.111-44.581-5.781-64.029-17.052l-3.24-1.876c-4.075-2.626-8.006-5.465-11.766-8.526
	c-3.683-2.848-7.187-5.917-10.487-9.208c-13.113-12.848-23.292-28.382-29.84-45.528c-4.485-11.723-7.187-24.051-8.014-36.576
	c0-2.814,0-5.883,0-9.037c-0.051-18.97,4.169-37.71,12.362-54.821c30.292-63.799,106.581-90.962,170.38-60.67
	c26.609,12.635,48.034,34.061,60.67,60.67c8.006,17.128,12.056,35.834,11.851,54.736c0,3.155,0,6.224,0,9.293
	c-0.836,12.465-3.538,24.742-8.014,36.405c-6.59,17.222-16.83,32.807-30.011,45.698c-3.299,3.291-6.804,6.36-10.487,9.208
	c-3.76,3.052-7.69,5.9-11.766,8.526c-1.108,0.682-2.387,1.449-3.666,2.046C300.193,391.318,278.119,397.09,255.696,396.859z
	 M255.696,158.137c-42.782,0.136-81.72,24.75-100.178,63.347c-7.076,14.826-10.725,31.059-10.657,47.489c0,2.643,0,5.201,0,7.758
	c0.716,10.922,3.069,21.673,6.991,31.887c5.746,14.912,14.639,28.408,26.089,39.56c2.814,2.805,5.798,5.431,8.952,7.844
	c3.334,2.609,6.804,5.03,10.401,7.247l2.302,1.364c34.333,19.66,76.502,19.66,110.835,0l2.728-1.535
	c3.572-2.225,7.017-4.638,10.316-7.247c3.146-2.421,6.139-5.039,8.952-7.844c11.459-11.177,20.36-24.699,26.089-39.645
	c4.229-10.001,6.931-20.573,8.014-31.375c0-2.814,0-5.371,0-8.014c0.068-16.429-3.572-32.662-10.657-47.489
	C337.408,182.887,298.479,158.273,255.696,158.137z"/>
<path d="M255.696,490.643c-4.706,0-8.526-3.82-8.526-8.526V456.54c0-4.706,3.82-8.526,8.526-8.526c4.706,0,8.526,3.82,8.526,8.526
	v25.577C264.222,486.824,260.403,490.643,255.696,490.643z"/>
<path d="M247.171,320.127c-1.927-0.009-3.785-0.674-5.286-1.876l-42.629-34.103c-3.581-3.061-4.007-8.441-0.946-12.021
	c2.924-3.427,8.006-3.982,11.604-1.279l35.979,28.817l62.92-78.608c2.831-3.768,8.176-4.527,11.936-1.697
	c3.768,2.831,4.527,8.176,1.697,11.936c-0.111,0.145-0.222,0.281-0.333,0.418l-68.206,85.258
	C252.261,319.002,249.78,320.161,247.171,320.127z"/>
<g>
</g>
<g>
</g>
<g>
</g>
<g>
</g>
<g>
</g>
<g>
</g>
<g>
</g>
<g>
</g>
<g>
</g>
<g>
</g>
<g>
</g>
<g>
</g>
<g>
</g>
<g>
</g>
<g>
</g>
</svg>
