<svg id="Capa_1" enable-background="new 0 0 512 512" height="512" viewBox="0 0 512 512" width="512" xmlns="http://www.w3.org/2000/svg"><g><g><path d="m204.891 473.039h102.202c34.465-15.469 57.937-46.092 57.937-81.349 0-50.851-48.818-92.073-109.038-92.073s-109.038 41.222-109.038 92.073c0 35.257 23.472 65.88 57.937 81.349z" fill="#c5d3dd"/><path d="m255.992 299.617c-6.777 0-13.408.526-19.843 1.526 50.745 7.879 89.196 45.419 89.196 90.548 0 35.257-23.472 65.88-57.937 81.349h39.685c34.465-15.469 57.937-46.092 57.937-81.349 0-50.852-48.818-92.074-109.038-92.074z" fill="#b6c4cf"/><path d="m301.709 473.039h-91.434c-8.688 0-15.731 7.043-15.731 15.731 0 8.688 7.043 15.73 15.731 15.73h91.434c8.688 0 15.73-7.043 15.73-15.73 0-8.688-7.043-15.731-15.73-15.731z" fill="#9facba"/><g><path d="m337.757 404.822c-4.143 0-7.5-3.358-7.5-7.5v-121.913c0-4.142 3.357-7.5 7.5-7.5s7.5 3.358 7.5 7.5v121.914c0 4.141-3.358 7.499-7.5 7.499z" fill="#465a61"/></g><path d="m283.062 306.268h-54.141c-8.521 0-15.43-6.908-15.43-15.429 0-8.521 6.908-15.429 15.43-15.429h54.141c8.521 0 15.43 6.908 15.43 15.429 0 8.521-6.908 15.429-15.43 15.429z" fill="#9facba"/><path d="m353.785 7.5h-195.586c-6.665 0-12.373 4.776-13.549 11.337l-43.063 240.38c-1.512 8.439 4.975 16.191 13.549 16.191h281.712c8.573 0 15.06-7.753 13.549-16.191l-43.063-240.38c-1.175-6.561-6.883-11.337-13.549-11.337z" fill="#fec165"/><path d="m410.397 259.218-43.063-240.38c-1.176-6.562-6.883-11.338-13.549-11.338h-39.685c6.666 0 12.373 4.776 13.549 11.337l43.063 240.38c1.512 8.439-4.976 16.191-13.549 16.191h39.685c8.573.001 15.06-7.752 13.549-16.19z" fill="#fdb441"/></g><path d="m374.717 17.515c-1.818-10.149-10.621-17.515-20.931-17.515h-195.587c-10.312 0-19.114 7.366-20.932 17.514l-18.379 102.594c-.73 4.077 1.983 7.974 6.061 8.705 4.072.733 7.975-1.982 8.705-6.06l18.379-102.594c.535-2.989 3.128-5.159 6.166-5.159h195.587c3.037 0 5.63 2.169 6.165 5.16 45.615 254.618 43.164 240.634 43.164 241.514 0 3.438-2.812 6.235-6.267 6.235-7.888 0-274.328 0-281.713 0-3.849 0-6.87-3.461-6.165-7.369l18.512-103.336c.73-4.077-1.983-7.974-6.061-8.705-4.072-.731-7.975 1.982-8.705 6.06-20 111.652-18.848 104.404-18.848 107.114 0 11.709 9.541 21.235 21.268 21.235h92.271c-.914 2.472-1.415 5.143-1.415 7.93 0 3.576.824 6.963 2.291 9.983-41.608 15.892-68.829 51.22-68.829 90.869 0 33.769 19.769 64.772 52.283 83.099-2.943 3.893-4.692 8.736-4.692 13.981 0 12.81 10.421 23.23 23.23 23.23h91.434c12.81 0 23.23-10.421 23.23-23.23 0-5.25-1.752-10.097-4.7-13.991 5.815-3.286 10.868-6.749 15.479-10.439 3.232-2.59 3.754-7.31 1.164-10.543-2.59-3.232-7.31-3.753-10.543-1.164-6.451 5.173-13.545 9.485-20.881 12.907-10.172 0-87.561 0-98.935 0-32.162-14.991-52.07-43.16-52.07-73.849 0-35.531 26.589-67.142 66.444-79.374 5.892 2.208 5.546 1.452 62.164 1.452 2.868 0 5.691-.558 8.024-1.451 15.252 4.681 28.551 12.207 39.17 21.696v63.309c0 4.142 3.357 7.5 7.5 7.5s7.5-3.358 7.5-7.5v-45.963c7.885 12.105 12.273 25.894 12.273 40.33 0 12.892-3.401 25.27-10.109 36.79-2.084 3.58-.872 8.171 2.707 10.255 3.586 2.087 8.173.868 10.256-2.708 8.06-13.842 12.146-28.759 12.146-44.338 0-24.092-10.054-46.592-27.273-64.107v-44.674h51.592c11.727 0 21.267-9.526 21.267-21.235.001-2.825 2.688 13.093-43.397-244.158zm-73.008 463.024c4.538 0 8.23 3.692 8.23 8.23s-3.692 8.23-8.23 8.23h-91.434c-4.538 0-8.23-3.692-8.23-8.23s3.692-8.23 8.23-8.23zm-76.608-182.756c-2.447-1.352-4.109-3.957-4.109-6.944 0-4.373 3.558-7.93 7.93-7.93h54.141c4.372 0 7.93 3.557 7.93 7.93 0 4.387-3.581 7.93-7.93 7.93-58.322-.001-55.42.418-57.962-.986zm105.156 17.108c-7.964-5.618-16.868-10.369-26.555-14.069 1.467-3.02 2.291-6.407 2.291-9.983 0-2.786-.501-5.457-1.415-7.93h25.679z"/></g></svg>